<svg width="80" height="80" viewBox="0 0 80 80" fill="none" xmlns="http://www.w3.org/2000/svg">
<g clip-path="url(#clip0_3_824)">
<path d="M68.0356 73.5205C68.0603 73.7619 68.4406 73.7642 68.4158 73.5211C68.3083 72.4683 68.9536 71.4787 69.9681 71.1579C70.7644 70.9062 71.5674 71.2045 71.8039 72.0491C71.9081 72.4215 71.9119 72.7756 71.8097 73.1159C71.8065 73.1159 71.8036 73.1151 71.8004 73.1151C71.452 73.1095 71.1191 73.2028 70.8021 73.3406C70.5591 73.4462 70.2203 73.6134 70.1698 73.9053C70.112 74.2399 70.4983 74.4612 70.7791 74.5029C71.126 74.5545 71.4435 74.3588 71.6707 74.1122C71.8384 73.9302 71.9662 73.732 72.0619 73.5234C72.1134 73.532 72.165 73.5395 72.2159 73.5527C72.9108 73.732 73.5065 74.3151 73.6035 75.0418C73.6895 75.6852 73.1891 76.0708 72.6022 76.1874C72.4496 75.9747 72.2598 75.7906 72.0401 75.6653C71.6012 75.4147 71.1349 75.5261 70.9569 76.0193C70.9361 76.0769 70.9572 76.1649 71.0055 76.2043C71.3951 76.5221 71.9092 76.6388 72.4085 76.5945C72.5622 76.8715 72.6436 77.1915 72.5977 77.5028C72.5194 78.0324 72.0533 78.5379 71.5299 78.6515C70.475 78.8804 69.4429 77.7544 69.1349 76.8573C69.0558 76.627 68.6885 76.7259 68.7682 76.9576C69.0233 77.7008 69.5712 78.3707 70.2562 78.7595C70.8313 79.0858 71.5423 79.1845 72.1219 78.8121C72.7111 78.4337 73.0754 77.7533 72.966 77.0532C72.938 76.8745 72.8794 76.6956 72.7997 76.5246C72.9199 76.4923 73.038 76.4538 73.1496 76.4024C73.9245 76.0455 74.1616 75.2572 73.84 74.4877C73.5539 73.8035 72.9116 73.3061 72.1908 73.1615C72.27 72.8488 72.2809 72.5174 72.2217 72.1763C72.1273 71.6328 71.8329 71.1115 71.3246 70.861C70.8615 70.6329 70.3152 70.642 69.8322 70.8034C68.6869 71.1854 67.9118 72.3094 68.0356 73.5205ZM72.1345 76.2226C71.8587 76.2108 71.5937 76.1402 71.3851 76.0107C71.5739 75.7675 71.9479 76.0318 72.1345 76.2226ZM71.6414 73.5048C71.6271 73.5298 71.615 73.555 71.5995 73.5797C71.4593 73.8038 71.241 74.0838 70.9605 74.1272C70.8272 74.1479 70.7052 74.1002 70.5969 74.0249C70.5171 73.9696 70.5371 73.9625 70.6008 73.896C70.7696 73.7197 71.0708 73.6281 71.2985 73.5628C71.4112 73.5305 71.526 73.5139 71.6414 73.5048Z" fill="black"/>
<path d="M67.7437 74.4714H67.7433L61.0527 74.4594C60.9396 74.4589 60.848 74.3673 60.8483 74.2542C60.8488 74.1414 60.9404 74.0498 61.053 74.0498H61.0535L67.744 74.0618C67.8572 74.0623 67.9487 74.1539 67.9484 74.267C67.948 74.3798 67.8564 74.4714 67.7437 74.4714Z" fill="black"/>
<path d="M67.6301 76.2732H67.6296L63.4388 76.2655C63.3257 76.2651 63.234 76.1735 63.2344 76.0603C63.2349 75.9475 63.3265 75.856 63.4391 75.856H63.4396L67.6304 75.8636C67.7435 75.8641 67.8351 75.9557 67.8348 76.0688C67.8345 76.1816 67.7428 76.2732 67.6301 76.2732Z" fill="black"/>
<path d="M24.189 49.5069C17.1472 57.056 13.7991 67.093 14.9773 77.3849C15.2239 79.5395 18.6039 79.3582 18.3556 77.1896C17.2733 67.7352 20.2426 58.6972 26.7161 51.7576C28.2042 50.1618 25.675 47.9137 24.189 49.5069Z" fill="black"/>
<path d="M18.4641 74.9518C18.4641 74.9518 20.6209 73.2081 16.3143 73.0665C11.6969 72.9148 14.6009 74.8611 14.6009 74.8611L13.9057 75.2489C13.9057 75.2489 8.949 71.2983 7.06432 75.1778C5.17948 79.0573 10.5413 79.7625 13.8302 79.844C17.1192 79.9252 20.6451 80.6978 18.4641 74.9518Z" fill="#FF558B"/>
<path d="M16.1485 80.0003C15.715 80.0003 15.2586 79.9797 14.7952 79.9589C14.4743 79.9444 14.1502 79.9298 13.8283 79.9219C11.2279 79.8575 7.91532 79.4309 6.89992 77.7634C6.46504 77.0491 6.49676 76.1675 6.99399 75.1435C7.4409 74.2237 8.09736 73.6601 8.94493 73.4679C10.0956 73.2074 11.3981 73.6899 12.2883 74.1412C13.1143 74.56 13.7484 75.0296 13.9128 75.1554L14.4551 74.8529C14.1846 74.6524 13.49 74.0808 13.6441 73.6029C13.7947 73.1352 14.6685 72.9352 16.3169 72.9883C17.9538 73.0422 18.8735 73.3374 19.0509 73.8664C19.2118 74.3461 18.7116 74.8377 18.5566 74.9755C19.3184 77.0008 19.4172 78.3609 18.8585 79.1327C18.341 79.8476 17.3297 80.0003 16.1485 80.0003ZM9.63483 73.5502C9.41231 73.5502 9.19292 73.572 8.97946 73.6203C8.18049 73.8014 7.55982 74.3369 7.13478 75.2116C6.66209 76.1847 6.62787 77.0158 7.03353 77.682C7.47575 78.4081 8.94696 79.6446 13.8324 79.7654C14.1552 79.7736 14.4804 79.7882 14.8023 79.8026C16.4848 79.8783 18.0739 79.95 18.732 79.0407C19.262 78.3086 19.1506 76.9799 18.391 74.9794L18.371 74.9265L18.4149 74.891C18.4213 74.8858 19.054 74.3662 18.9026 73.9157C18.7962 73.5993 18.2605 73.2085 16.3116 73.1444C14.3844 73.0808 13.8783 73.3848 13.7925 73.6506C13.6677 74.0379 14.3651 74.6086 14.6443 74.7958L14.7502 74.8668L13.8981 75.3423L13.857 75.3096C13.8325 75.2902 11.623 73.5502 9.63483 73.5502Z" fill="black"/>
<path d="M17.0162 75.3119C16.8779 75.3119 16.7318 75.3055 16.5779 75.2906L16.5929 75.135C17.7091 75.2431 18.4213 74.8859 18.4283 74.8823L18.4994 75.0215C18.4732 75.035 17.9198 75.3119 17.0162 75.3119Z" fill="black"/>
<path d="M15.3416 75.1702C15.2649 75.1702 15.0025 75.1513 14.5657 74.9305L14.6361 74.791C15.1046 75.0279 15.349 75.0141 15.3518 75.0138L15.3649 75.1695C15.3632 75.1696 15.3554 75.1702 15.3416 75.1702Z" fill="black"/>
<path d="M13.9111 75.2432C14.0736 75.3204 14.2181 75.4168 14.3559 75.52C14.495 75.6221 14.6236 75.7354 14.7497 75.8511C14.8725 75.9705 14.9933 76.0921 15.1033 76.2249C15.2145 76.3566 15.3194 76.4949 15.4062 76.6524L15.3955 76.6638L14.6425 75.9649L13.9001 75.2546L13.9111 75.2432Z" fill="black"/>
<path d="M13.9136 75.248C13.9788 75.3859 14.0177 75.5254 14.0472 75.6657C14.0783 75.8059 14.0941 75.9471 14.1064 76.0885C14.1139 76.2304 14.1183 76.3724 14.1072 76.5155C14.0978 76.6585 14.0791 76.8023 14.0344 76.9477L14.0188 76.9488L13.9506 76.0996L13.8981 75.2493L13.9136 75.248Z" fill="black"/>
<path d="M9.48121 74.174C9.33198 74.252 9.18509 74.3278 9.05164 74.4253C8.98132 74.467 8.9171 74.5183 8.85006 74.5636C8.78584 74.6134 8.72458 74.6665 8.66239 74.7172C8.42081 74.9289 8.20767 75.17 8.06516 75.4513C7.90905 75.7229 7.80013 76.0256 7.75841 76.345L7.73419 76.4639L7.72575 76.5851L7.70919 76.8298C7.69919 76.9944 7.71575 77.1592 7.70622 77.3302L7.69091 77.3332C7.67012 77.1671 7.63965 77.0016 7.62699 76.8347L7.62356 76.5831L7.62262 76.4573L7.63762 76.3323L7.66887 76.0823L7.73325 75.8385C7.74997 75.7555 7.78826 75.6799 7.81951 75.6019C7.85154 75.5241 7.88217 75.4455 7.92874 75.3749C8.09156 75.0803 8.32049 74.8237 8.58785 74.6206C8.85616 74.4189 9.15602 74.2585 9.47699 74.1587L9.48121 74.174Z" fill="white"/>
<path d="M53.4146 68.3092C50.809 69.2246 48.2285 70.2145 45.6058 71.081C43.1251 71.9006 40.2102 72.718 37.5852 72.1454C31.1043 70.7319 36.589 62.9702 38.5504 59.8296C39.7074 57.9773 36.7809 56.2766 35.6285 58.1216C32.8439 62.5801 27.7744 70.6226 34.2005 74.4326C40.2477 78.0179 48.4876 73.6191 54.314 71.5721C56.3551 70.855 55.4766 67.5846 53.4146 68.3092Z" fill="black"/>
<path d="M49.9782 69.087C49.9782 69.087 47.5475 67.7514 49.0475 71.7906C50.6557 76.1214 51.3572 72.6968 51.3572 72.6968L51.9794 73.1932C51.9794 73.1932 50.2004 79.2768 54.5046 79.5519C58.809 79.8269 57.431 74.5974 56.2607 71.5228C55.0905 68.4482 54.4701 64.8923 49.9782 69.087Z" fill="#FF558B"/>
<path d="M54.8195 79.6405C54.7157 79.6405 54.6092 79.6371 54.4996 79.6301C53.4794 79.5649 52.709 79.171 52.2102 78.459C51.533 77.4925 51.4866 76.1043 51.5671 75.1097C51.6418 74.1867 51.8365 73.4219 51.8904 73.2222L51.4049 72.835C51.3217 73.1613 51.0559 74.0205 50.5554 74.059C50.0638 74.097 49.5483 73.3635 48.9744 71.8179C48.4043 70.2826 48.3291 69.3194 48.7514 68.955C49.1345 68.624 49.7788 68.9011 49.9651 68.9923C51.5507 67.5205 52.7718 66.9144 53.6983 67.1386C54.8709 67.4231 55.4203 68.9597 56.0019 70.5864C56.1099 70.8887 56.2193 71.1942 56.3338 71.495C57.2591 73.926 58.1188 77.1536 56.9601 78.7248C56.5114 79.3332 55.7922 79.6405 54.8195 79.6405ZM51.3063 72.5564L52.0693 73.165L52.0544 73.2153C52.0448 73.2488 51.0895 76.5878 52.3382 78.3695C52.8086 79.0403 53.5391 79.4119 54.5098 79.474C55.5878 79.5419 56.3715 79.2597 56.8344 78.632C57.3389 77.9477 57.926 76.1177 56.1876 71.5507C56.0729 71.2488 55.9632 70.9423 55.8547 70.639C55.2877 69.0531 54.752 67.5552 53.6613 67.2903C52.7828 67.0772 51.5953 67.6838 50.0315 69.1439L49.9902 69.1825L49.9407 69.1553C49.9333 69.1514 49.2131 68.7628 48.8534 69.0733C48.6007 69.2916 48.4421 69.9355 49.1209 71.7635C49.7919 73.5707 50.269 73.9279 50.5435 73.903C50.949 73.8719 51.2131 73.0103 51.2808 72.6811L51.3063 72.5564Z" fill="black"/>
<path d="M50.8565 70.7494C50.5347 69.6796 49.9333 69.1514 49.9272 69.1463L50.0291 69.0278C50.0551 69.0502 50.6704 69.5878 51.006 70.7044L50.8565 70.7494Z" fill="black"/>
<path d="M51.435 72.7034L51.2794 72.6909C51.3212 72.1666 51.2154 71.9462 51.2144 71.9441L51.3536 71.873C51.3587 71.883 51.4811 72.1271 51.435 72.7034Z" fill="black"/>
<path d="M51.9722 73.1903C51.9821 73.0106 52.0166 72.8404 52.06 72.6736C52.1019 72.5062 52.158 72.3443 52.2174 72.1837C52.2813 72.0248 52.3482 71.8671 52.4294 71.7148C52.5091 71.562 52.5975 71.4125 52.7102 71.2725L52.7247 71.2781L52.363 72.2398L51.9868 73.1959L51.9722 73.1903Z" fill="black"/>
<path d="M51.976 73.1865C52.0788 73.074 52.1932 72.9851 52.3119 72.9047C52.4299 72.8229 52.5546 72.7549 52.6809 72.6897C52.8093 72.6291 52.9391 72.5713 53.0757 72.5274C53.2116 72.4819 53.3516 72.4447 53.5034 72.4312L53.5102 72.4452L52.7501 72.8299L51.9829 73.2005L51.976 73.1865Z" fill="black"/>
<path d="M52.6608 77.6953C52.7895 77.8039 52.9153 77.9111 53.0559 77.9978C53.1211 78.0471 53.1928 78.0872 53.2603 78.1319C53.3308 78.1725 53.4032 78.2089 53.4736 78.2475C53.761 78.391 54.0649 78.4969 54.3793 78.5223C54.6898 78.5638 55.0113 78.5501 55.3225 78.4677L55.4418 78.4451L55.5571 78.4069L55.7899 78.3296C55.946 78.2765 56.0923 78.1988 56.254 78.1427L56.2626 78.1558C56.1167 78.2379 55.9751 78.3288 55.8255 78.4038L55.594 78.5023L55.4779 78.5509L55.3564 78.5843L55.1133 78.6501L54.8633 78.6829C54.7803 78.6988 54.6958 78.6921 54.6117 78.6926C54.5275 78.6924 54.4432 78.6938 54.3603 78.6774C54.026 78.6382 53.7018 78.5235 53.4125 78.353C53.1242 78.1811 52.8623 77.9642 52.6483 77.705L52.6608 77.6953Z" fill="white"/>
<path d="M71.4581 32.6474C71.3761 32.2274 70.7424 32.4394 70.8238 32.8568C71.1278 34.4144 71.3678 36.0087 71.2425 37.5997C71.1254 39.0852 70.3182 40.3158 69.3834 41.4329C68.4758 42.5175 67.5714 43.5542 66.9821 44.8595C66.4282 46.0864 66.2183 47.5248 66.3789 48.8602C66.5586 50.3546 67.0934 51.7856 67.48 53.2331C67.8884 54.7624 67.9853 56.2457 67.7326 57.8114C67.5212 59.1214 66.9834 60.3305 65.9375 61.1847C64.9087 62.0249 63.6515 62.3701 62.3492 62.0672C60.8316 61.7144 59.4904 60.7478 58.378 59.6906C57.7567 59.1001 57.2101 58.4354 56.7365 57.7211C56.2652 57.0103 55.957 56.2351 55.6414 55.4473C55.4824 55.0507 54.8468 55.2564 55.0071 55.6567C55.294 56.3727 55.5689 57.095 55.9686 57.7578C56.3647 58.4148 56.8408 59.0329 57.3567 59.6002C58.3386 60.6798 59.5493 61.646 60.8808 62.2569C62.1208 62.8259 63.5395 63.0839 64.846 62.5801C66.0005 62.1349 66.9743 61.303 67.6073 60.2415C68.3585 58.9818 68.5529 57.4034 68.5605 55.9602C68.5691 54.3241 68.0352 52.7684 67.595 51.2125C67.1413 49.6092 66.8138 48.0644 67.174 46.4046C67.5067 44.8709 68.4263 43.5572 69.4393 42.3933C70.4913 41.1848 71.6078 39.8109 71.8466 38.1756C72.1153 36.3353 71.8108 34.4546 71.4581 32.6474Z" fill="black"/>
<path d="M70.6489 29.4135L70.7004 31.1896L70.1928 31.2043L70.1414 29.4282C70.1405 29.3938 70.1675 29.3651 70.2019 29.3641L70.5849 29.3531C70.6193 29.3521 70.6479 29.3791 70.6489 29.4135Z" fill="#FFD200"/>
<path d="M70.1171 31.285L70.0632 29.4306C70.0611 29.3532 70.1222 29.2885 70.1994 29.286L70.5824 29.275C70.6548 29.2729 70.7245 29.3342 70.7271 29.4112L70.7809 31.2657L70.1171 31.285ZM70.2199 29.4418L70.2686 31.1242L70.6199 31.1142L70.5713 29.4317L70.2199 29.4418Z" fill="black"/>
<path d="M71.9237 29.3764L71.9751 31.1525L71.4676 31.1672L71.4162 29.3911C71.4153 29.3567 71.4423 29.328 71.4767 29.327L71.8597 29.3159C71.894 29.3149 71.9226 29.342 71.9237 29.3764Z" fill="#FFD200"/>
<path d="M71.3918 31.2479L71.3381 29.3936C71.337 29.3562 71.3504 29.3204 71.3762 29.2931C71.4018 29.2657 71.4367 29.2503 71.4742 29.249L71.8572 29.2379C71.9333 29.2345 71.9994 29.2972 72.0019 29.3742V29.3743L72.0556 31.2287L71.3918 31.2479ZM71.4948 29.4048L71.5436 31.0871L71.8948 31.0771L71.8461 29.3947L71.4948 29.4048Z" fill="black"/>
<path d="M69.584 30.6949L69.6595 33.2959L72.5019 33.2134L72.4264 30.6124L69.584 30.6949Z" fill="black"/>
<path d="M69.5859 33.379L69.5059 30.6217L72.5046 30.5347L72.5846 33.2919L69.5859 33.379ZM69.6669 30.7734L69.7377 33.2182L72.4237 33.1403L72.3529 30.6956L69.6669 30.7734Z" fill="black"/>
<path d="M66.7707 45.5021C66.8085 46.259 66.2288 46.8997 65.4753 46.9373C65.442 46.939 65.4086 46.9406 65.3751 46.939C65.3719 46.9392 65.3719 46.9392 65.3719 46.9392C65.1676 46.9326 64.9745 46.8822 64.7998 46.7973C64.7004 46.7487 64.6071 46.6867 64.5232 46.6139C64.2441 46.3804 64.0596 46.0319 64.0399 45.6385C64.0225 45.2917 64.1368 44.9684 64.3415 44.7175C64.574 44.4217 64.932 44.2266 65.3389 44.2063C66.0924 44.1687 66.7331 44.7484 66.7707 45.5021Z" fill="#FFD200"/>
<path d="M65.4041 47.0177C65.3933 47.0177 65.3822 47.0175 65.3712 47.0169C65.1595 47.0105 64.9564 46.96 64.7656 46.8675C64.6602 46.8159 64.5615 46.7504 64.4719 46.6726C64.1683 46.4189 63.9819 46.043 63.9619 45.6424C63.9441 45.2881 64.0574 44.9422 64.2808 44.6679C64.534 44.346 64.9184 44.1491 65.3348 44.1284C65.7206 44.1088 66.0897 44.2409 66.3757 44.4995C66.6615 44.7581 66.8295 45.1128 66.8487 45.498C66.8885 46.2949 66.2741 46.9756 65.4791 47.0153C65.4542 47.0166 65.4292 47.0177 65.4041 47.0177ZM65.4078 44.2827C65.3861 44.2827 65.3645 44.2832 65.3428 44.2843C64.9714 44.3029 64.6288 44.4782 64.4027 44.7656C64.203 45.0108 64.1021 45.3191 64.1179 45.6344C64.1357 45.9916 64.3018 46.3268 64.5732 46.5537C64.6537 46.6236 64.7409 46.6814 64.834 46.7268C65.0046 46.8097 65.1865 46.8548 65.3742 46.8608C65.4098 46.8628 65.4408 46.8606 65.4712 46.859C66.1804 46.8234 66.7284 46.2165 66.6928 45.5057C66.6584 44.8186 66.0883 44.2827 65.4078 44.2827Z" fill="black"/>
<path d="M71.18 55.3946C71.2178 56.1516 70.638 56.7922 69.8845 56.8299C69.8513 56.8316 69.8178 56.8332 69.7844 56.8316C69.7811 56.8318 69.7811 56.8318 69.7811 56.8318C69.5769 56.8252 69.3839 56.7747 69.209 56.6899C69.1096 56.6413 69.0163 56.5793 68.9324 56.5064C68.6533 56.273 68.4688 55.9245 68.4491 55.5311C68.4318 55.1843 68.546 54.861 68.7507 54.61C68.9832 54.3142 69.3412 54.1192 69.7481 54.0989C70.5016 54.0612 71.1423 54.641 71.18 55.3946Z" fill="#FFD200"/>
<path d="M69.8131 56.9103C69.8022 56.9103 69.7911 56.9101 69.7801 56.9095C69.5686 56.9032 69.3654 56.8528 69.1746 56.7599C69.0695 56.7087 68.9707 56.6432 68.8812 56.5655C68.5772 56.3113 68.3908 55.9355 68.3708 55.535C68.3532 55.1803 68.4664 54.8345 68.6899 54.5607C68.9429 54.239 69.3275 54.0419 69.7439 54.021C70.132 54.0013 70.4988 54.1336 70.7848 54.3921C71.0706 54.6507 71.2385 55.0054 71.2576 55.3909C71.277 55.7777 71.1453 56.1482 70.8866 56.4344C70.6282 56.7207 70.2736 56.8888 69.888 56.9079C69.8634 56.9092 69.8384 56.9103 69.8131 56.9103ZM69.8176 54.1754C69.7958 54.1754 69.7739 54.1758 69.7519 54.1769C69.3806 54.1957 69.0381 54.3711 68.8119 54.6584C68.6122 54.9032 68.5111 55.2114 68.5269 55.5272C68.5447 55.8841 68.7108 56.2193 68.9826 56.4465C69.0631 56.5162 69.1502 56.5741 69.2432 56.6195C69.4139 56.7024 69.5958 56.7476 69.7834 56.7535C69.8191 56.7554 69.85 56.7534 69.8805 56.7518C70.2242 56.7346 70.5405 56.5848 70.7708 56.3296C71.0016 56.0743 71.119 55.7436 71.1018 55.3986V55.3984C71.0846 55.055 70.9349 54.7385 70.6799 54.508C70.4414 54.2921 70.1374 54.1754 69.8176 54.1754Z" fill="black"/>
<path d="M64.076 60.7735C64.1138 61.5305 63.534 62.1711 62.7805 62.2088C62.7473 62.2105 62.7138 62.2121 62.6804 62.2105C62.6771 62.2107 62.6771 62.2107 62.6771 62.2107C62.4729 62.2041 62.2797 62.1536 62.105 62.0688C62.0056 62.0203 61.9123 61.9581 61.8284 61.8853C61.5493 61.6519 61.3648 61.3034 61.3451 60.9099C61.3278 60.5632 61.442 60.2399 61.6467 59.9889C61.8792 59.6931 62.2372 59.4981 62.6441 59.4778C63.3976 59.4403 64.0383 60.02 64.076 60.7735Z" fill="#FFD200"/>
<path d="M62.7091 62.2891C62.6982 62.2891 62.6871 62.289 62.6761 62.2884C62.4649 62.2821 62.2617 62.2318 62.0706 62.139C61.9656 62.0876 61.8669 62.0222 61.777 61.9444C61.4732 61.6902 61.2868 61.3142 61.2668 60.9139C61.2491 60.5592 61.3624 60.2133 61.5859 59.9396C61.8389 59.6178 62.2234 59.4208 62.6399 59.3998C63.027 59.3803 63.3949 59.5125 63.6808 59.771C63.9666 60.0296 64.1345 60.3843 64.1536 60.7698V60.7696C64.173 61.1565 64.0412 61.527 63.7826 61.8133C63.5242 62.0996 63.1696 62.2677 62.784 62.2868C62.7593 62.288 62.7343 62.2891 62.7091 62.2891ZM62.7136 59.5542C62.6918 59.5542 62.6699 59.5547 62.6479 59.5558C62.2766 59.5745 61.934 59.75 61.7079 60.0372C61.5082 60.2821 61.4071 60.5903 61.4229 60.9062C61.4407 61.2631 61.6068 61.5983 61.8784 61.8255C61.9591 61.8952 62.0464 61.9532 62.1392 61.9985C62.3102 62.0815 62.4919 62.1266 62.6793 62.1324C62.715 62.134 62.7457 62.1323 62.7763 62.1307C63.1202 62.1135 63.4365 61.9636 63.6668 61.7085C63.8976 61.4531 64.0152 61.1225 63.9978 60.7775V60.7773C63.9806 60.4338 63.8309 60.1174 63.5759 59.8869C63.3374 59.671 63.0334 59.5542 62.7136 59.5542Z" fill="black"/>
<path d="M61.9439 68.0352C57.3679 67.3713 52.5763 66.5411 47.5905 65.5067C40.507 64.0322 33.9168 62.3291 27.856 60.516L31.0694 59.3291L22.2976 57.7853C23.6475 57.574 25.6135 57.449 26.75 57.1115C23.8601 56.4736 20.506 55.5148 16.8898 54.0575C12.5913 52.3267 9.02871 50.3353 6.21301 48.5072C7.71157 48.1248 9.58484 47.4829 11.5817 46.3703C12.7688 45.7093 13.7767 45.0071 14.6095 44.347C12.1615 44.5931 9.71017 44.8392 7.25888 45.0888C9.78127 43.7895 12.5721 42.1757 15.4966 40.1609C15.5224 40.1429 15.5516 40.1246 15.5774 40.1067C15.7324 39.9987 15.8875 39.8906 16.0458 39.7824C16.1654 39.6996 16.2816 39.6169 16.401 39.5307C16.6723 39.34 16.9434 39.146 17.2144 38.9485C20.3526 36.6623 23.012 34.3565 25.2252 32.2203C23.2411 31.9851 21.2572 31.7501 19.2731 31.5149C21.8755 30.2784 24.6795 28.7944 27.5993 27.0172C28.2513 26.6203 28.8867 26.2242 29.505 25.8222C29.6865 25.7061 29.8679 25.5902 30.0491 25.4708C30.0557 25.4672 30.0588 25.4636 30.0654 25.46C30.3404 25.2791 30.6156 25.0983 30.8841 24.9176C31.7768 24.3181 32.6393 23.72 33.4655 23.1272C33.5366 23.0769 33.6074 23.0231 33.6785 22.9728C33.8849 22.8222 34.0848 22.6751 34.2846 22.5281C34.3201 22.5029 34.3523 22.4779 34.3878 22.4528C35.2839 21.7896 36.1403 21.1317 36.9503 20.4862C35.0513 20.2101 33.1553 19.9338 31.2564 19.661C33.9515 18.8076 36.9597 17.6644 40.1446 16.1113C42.1743 15.1208 44.0149 14.0927 45.669 13.074C44.3056 12.9482 42.9453 12.8225 41.5819 12.6967C43.491 12.0999 45.508 11.3906 47.6051 10.5437C48.3751 10.2344 49.1247 9.91613 49.8543 9.59892L49.8542 9.59564C52.3042 8.52055 54.5411 7.39577 56.5578 6.27881C56.4986 6.36538 55.0471 8.49039 54.4656 13.109C54.2117 15.1173 54.125 17.5953 54.3844 20.5809C53.6924 19.1781 52.9974 17.7754 52.3022 16.3727C52.6302 18.6562 53.1402 21.2347 53.9442 24.0126C53.9485 24.0324 53.9531 24.0555 53.9607 24.0752C54.009 24.2399 54.0575 24.4046 54.1056 24.5661L54.1057 24.5693C54.1137 24.5957 54.1218 24.6253 54.13 24.6517C54.2183 24.9481 54.3095 25.2344 54.4009 25.5239C55.3607 28.5414 56.4472 30.8169 57.5298 33.0159C56.3308 31.5649 55.1624 30.46 53.9632 29.0056C54.3762 31.385 54.9288 33.9448 55.669 36.6489C56.7317 40.5236 57.9842 43.9776 59.2573 46.9794C57.8487 45.6157 56.44 44.252 55.0314 42.8885C55.1896 43.9803 55.3877 45.1338 55.6318 46.3383C55.7335 46.8346 55.8423 47.3407 55.9617 47.8562C55.9964 48.015 56.0343 48.1736 56.0725 48.3353C56.0772 48.3619 56.0851 48.3881 56.09 48.418C56.1487 48.6556 56.2075 48.8968 56.2698 49.141C56.2701 49.1477 56.2737 49.1508 56.274 49.1575C56.4252 49.7718 56.5902 50.3986 56.7691 51.0349C57.1391 52.3536 57.5396 53.6104 57.9565 54.7964C57.9686 54.836 57.9837 54.8719 57.9958 54.9114C58.0584 55.0955 58.1209 55.2763 58.1867 55.4535C58.2411 55.6046 58.2953 55.7556 58.3531 55.9065C58.8871 57.3607 59.4424 58.7069 59.9987 59.9392C58.6358 58.8875 57.2727 57.8325 55.9129 56.7772C56.3551 58.4031 57.0608 60.417 58.2126 62.5958C59.4343 64.908 60.7914 66.7121 61.9439 68.0352Z" fill="#006658"/>
<path d="M62.1412 68.1425L61.9328 68.1123C57.1523 67.4186 52.3216 66.5678 47.5748 65.5827C40.9163 64.1968 34.2745 62.5172 27.8337 60.5906L27.6094 60.5234L30.7711 59.3557L21.8211 57.7802L22.2856 57.7076C22.7437 57.6358 23.2634 57.5752 23.8138 57.5108C24.7417 57.4025 25.6974 57.2908 26.4212 57.1175C23.1758 56.3837 19.9611 55.3789 16.8606 54.1295C13.1384 52.6307 9.54172 50.7611 6.17036 48.5721L6.02081 48.4751L6.19364 48.431C8.06488 47.9535 9.86471 47.237 11.5438 46.3015C12.5206 45.7577 13.4631 45.1358 14.3488 44.4512L14.2358 44.4626C11.9147 44.6957 9.59047 44.9292 7.26669 45.1658L6.85619 45.2075L7.2231 45.0186C10.0741 43.5499 12.8429 41.8936 15.4523 40.0958L15.533 40.0418C15.6882 39.9338 15.8433 39.8255 16.0019 39.7172C16.1207 39.635 16.2365 39.5525 16.3554 39.4666C16.6271 39.2756 16.8979 39.0818 17.1683 38.8845C19.9358 36.8687 22.5875 34.6463 25.052 32.2775L18.9948 31.5597L19.2395 31.4436C22.0718 30.0978 24.8706 28.5858 27.5586 26.9496C28.2718 26.5154 28.8947 26.1249 29.4625 25.7558C29.6441 25.6397 29.8252 25.5239 30.0062 25.4047C30.0157 25.3979 30.0205 25.3948 30.0266 25.3911C30.2973 25.2129 30.5723 25.0323 30.8405 24.8518C31.7347 24.2513 32.6025 23.6495 33.4199 23.0629C33.4555 23.0377 33.4905 23.012 33.5258 22.9862C33.5615 22.9599 33.5974 22.9337 33.6333 22.9082C33.8388 22.7584 34.0387 22.6113 34.2385 22.4643L34.3428 22.3882C35.1706 21.7755 35.9837 21.1529 36.7605 20.5365L36.0096 20.4274C34.4212 20.1963 32.8345 19.9656 31.2455 19.7373L30.9069 19.6892L31.2327 19.5861C34.2739 18.6232 37.2607 17.4303 40.1104 16.0408C41.9312 15.152 43.7191 14.1734 45.4277 13.1299L41.1858 12.7383L41.5585 12.6218C43.589 11.987 45.6134 11.2635 47.5757 10.471C48.242 10.2034 48.9424 9.90935 49.7768 9.54729L49.8228 9.52385C52.1062 8.52174 54.3595 7.40681 56.5199 6.21015L56.8086 6.05029L56.6224 6.32266C56.4689 6.54705 55.1066 8.64316 54.5431 13.1187C54.2564 15.3857 54.2292 17.8941 54.4622 20.574L54.4981 20.9881L54.3142 20.6151C53.6953 19.3604 53.0735 18.1055 52.4517 16.8507C52.8211 19.2723 53.3479 21.6719 54.019 23.9905C54.0247 24.0163 54.0279 24.0327 54.0333 24.0466C54.0837 24.2175 54.1322 24.3821 54.1803 24.5435L54.2044 24.6283C54.283 24.8918 54.3633 25.1467 54.4444 25.4029L54.475 25.5003C55.4168 28.4612 56.4903 30.7285 57.5995 32.9812L57.8943 33.5798L57.4692 33.0654C56.8741 32.3455 56.2764 31.6997 55.6982 31.0751C55.1732 30.5079 54.6322 29.9233 54.0904 29.2806C54.5274 31.7439 55.0833 34.2143 55.7439 36.6282C56.7067 40.1388 57.9129 43.611 59.3287 46.9487L59.4792 47.3033L55.1416 43.1044C55.2993 44.1633 55.4895 45.245 55.7078 46.3227C55.8196 46.8681 55.9273 47.3641 56.0372 47.8386C56.0656 47.9688 56.0961 48.0979 56.127 48.2288L56.148 48.3174C56.1508 48.3326 56.1533 48.3431 56.1559 48.3538C56.1597 48.3704 56.1637 48.3876 56.1665 48.4057L56.2036 48.5546C56.2497 48.7415 56.2962 48.9306 56.3448 49.1217L56.3461 49.1264C56.3484 49.1328 56.3508 49.1423 56.3512 49.1539C56.5008 49.7554 56.6672 50.386 56.8435 51.0134C57.1977 52.2757 57.5967 53.5397 58.0295 54.7701C58.0362 54.792 58.0425 54.8095 58.0489 54.8272C58.0561 54.8473 58.0634 54.8675 58.0697 54.8886C58.1314 55.0695 58.1937 55.2495 58.2591 55.4261C58.3136 55.5774 58.3675 55.728 58.4252 55.8785C58.9304 57.2542 59.4834 58.6093 60.069 59.907L60.1977 60.192L59.95 60.0009C58.6492 58.997 57.3482 57.9902 56.0501 56.9831C56.5905 58.9055 57.3405 60.7803 58.2809 62.5592C59.3085 64.5039 60.5607 66.329 62.0022 67.9839L62.1412 68.1425ZM28.1029 60.5079C34.4693 62.4053 41.0297 64.0609 47.6065 65.4299C52.2816 66.4 57.038 67.2399 61.7476 67.9273C60.3559 66.3057 59.1438 64.5251 58.1433 62.6319C57.1605 60.773 56.3847 58.8101 55.8372 56.7973L55.7757 56.5718L55.9604 56.7153C57.2382 57.7069 58.5191 58.6983 59.7998 59.6871C59.2596 58.4726 58.7486 57.2114 58.2794 55.9334C58.2219 55.7829 58.1672 55.6313 58.1128 55.4797C58.0472 55.3027 57.9845 55.1213 57.9214 54.9364C57.915 54.9153 57.9087 54.8978 57.9023 54.8801C57.8951 54.86 57.8878 54.8398 57.8815 54.8187C57.4487 53.5885 57.0486 52.3213 56.6935 51.0558C56.5166 50.4268 56.3498 49.7943 56.1978 49.1761C56.197 49.1734 56.1942 49.1661 56.1926 49.1555C56.1442 48.9656 56.0981 48.7778 56.0522 48.5921L56.0139 48.4368C56.0103 48.4159 56.0072 48.4026 56.0042 48.3896C56.0008 48.3757 55.9978 48.3621 55.9954 48.3485L55.9754 48.2648C55.9442 48.1329 55.9134 48.0029 55.8851 47.8727C55.7753 47.3978 55.667 46.9006 55.5549 46.3538C55.3204 45.1959 55.1183 44.0336 54.954 42.8993L54.9211 42.6729L59.0365 46.6568C57.682 43.4211 56.5244 40.0633 55.5934 36.6693C54.9057 34.1565 54.3312 31.5825 53.8862 29.0189L53.8357 28.728L54.0234 28.9557C54.6249 29.6852 55.229 30.3379 55.8132 30.9692C56.2606 31.4526 56.72 31.9488 57.1813 32.4827C56.1684 30.4069 55.1923 28.2704 54.3262 25.5476L54.2955 25.4501C54.2142 25.1931 54.1336 24.9376 54.055 24.6738L54.0279 24.5791C53.9806 24.4205 53.9331 24.2589 53.8857 24.097C53.8795 24.0817 53.8739 24.0569 53.8692 24.0345C53.1508 21.5523 52.5975 18.9785 52.2248 16.3838L52.1554 15.9006L52.3723 16.338C53.0068 17.6179 53.6412 18.8982 54.2731 20.1781C54.0762 17.6409 54.1148 15.2613 54.3883 13.0991C54.8652 9.31024 55.9157 7.20445 56.3325 6.49205C54.2639 7.62761 52.1133 8.68769 49.9348 9.64558L49.935 9.64574L49.8857 9.67058C49.0296 10.0426 48.314 10.3431 47.6345 10.6161C45.7878 11.3618 43.8857 12.0469 41.9756 12.6544L45.9096 13.0176L45.7102 13.1404C43.9368 14.2325 42.076 15.2556 40.1793 16.1813C37.424 17.525 34.5404 18.6849 31.6041 19.6317C33.0806 19.8442 34.5558 20.0588 36.0321 20.2733L37.1405 20.4344L36.9994 20.5469C36.1785 21.2012 35.3158 21.8634 34.4347 22.5155L34.3303 22.5915C34.1312 22.738 33.9312 22.8851 33.7248 23.0359C33.6887 23.0613 33.6537 23.0871 33.6183 23.1129C33.5826 23.1392 33.5468 23.1654 33.5108 23.1909C32.6925 23.7781 31.8233 24.3808 30.9278 24.9823C30.6592 25.1631 30.384 25.344 30.1085 25.5251C30.0993 25.5315 30.0943 25.535 30.0876 25.5389C29.911 25.6556 29.7293 25.7717 29.5475 25.8878C28.9789 26.2575 28.3548 26.6488 27.6402 27.0837C25.025 28.6759 22.3046 30.1503 19.5508 31.469L25.3981 32.1621L25.2797 32.2763C22.7764 34.6931 20.0783 36.959 17.2606 39.0117C16.9895 39.2094 16.7181 39.4037 16.4463 39.5945C16.3274 39.6805 16.2107 39.7635 16.091 39.8466C15.9322 39.9549 15.7774 40.0629 15.6227 40.1707L15.5417 40.2249C13.0376 41.95 10.3876 43.5449 7.65876 44.9693C9.8469 44.747 12.035 44.5271 14.2205 44.3076L14.8675 44.2426L14.6584 44.4082C13.7049 45.1639 12.6826 45.8469 11.6202 46.4384C9.98113 47.3519 8.2274 48.0577 6.40506 48.5382C9.72486 50.6801 13.2614 52.5123 16.9193 53.9849C20.1113 55.2714 23.4246 56.2974 26.7672 57.0352L27.0623 57.1003L26.7726 57.1864C26.0141 57.4116 24.905 57.5413 23.8326 57.6665C23.4699 57.709 23.1203 57.7496 22.7937 57.7932L31.3682 59.3024L28.1029 60.5079Z" fill="black"/>
<path d="M44.7693 20.7892C44.693 20.7892 44.6233 20.7742 44.5627 20.7409C44.1322 20.5048 44.2602 19.6786 44.3722 19.2144C44.0434 19.5349 43.4137 20.0302 42.928 19.6986C42.8305 19.6319 42.7732 19.5343 42.7574 19.4083C42.6755 18.7443 43.8526 17.4086 43.9028 17.3521L44.0197 17.4558C43.691 17.8263 42.8514 18.8961 42.9125 19.3892C42.9224 19.4699 42.9563 19.5289 43.0161 19.5696C43.5732 19.9507 44.463 18.8906 44.4719 18.8798L44.73 18.5687L44.6063 18.9537C44.4822 19.34 44.2459 20.3892 44.6375 20.604C45.034 20.8215 46.14 19.8777 46.5328 19.4955L46.6417 19.6075C46.5053 19.7404 45.4073 20.7892 44.7693 20.7892Z" fill="black"/>
<path d="M48.8379 31.2963C48.7908 31.2963 48.7458 31.2891 48.7035 31.2734C48.2425 31.1044 48.2453 30.2684 48.2867 29.7924C48.0098 30.1584 47.461 30.742 46.9313 30.4871C46.8247 30.4359 46.7533 30.3479 46.7193 30.2257C46.5388 29.5816 47.5029 28.0844 47.5439 28.021L47.6751 28.1062C47.4056 28.5217 46.7355 29.705 46.8697 30.1837C46.8918 30.2618 46.934 30.3151 46.9991 30.3465C47.6082 30.639 48.3281 29.4585 48.3355 29.4466L48.5441 29.1008L48.4794 29.4994C48.4146 29.8997 48.338 30.973 48.7572 31.1266C49.1843 31.2831 50.1341 30.1835 50.4653 29.7469L50.5899 29.8413C50.4697 29.9996 49.4674 31.2963 48.8379 31.2963Z" fill="black"/>
<path d="M47.6509 51.5217C47.6495 51.5217 47.6481 51.5217 47.6468 51.5217C47.1558 51.5159 46.88 50.7268 46.7603 50.2644C46.6211 50.7018 46.3002 51.4351 45.714 51.3712C45.5965 51.3584 45.5001 51.2992 45.427 51.1954C45.0421 50.6483 45.4521 48.9152 45.4696 48.8418L45.6217 48.8782C45.5062 49.36 45.2688 50.6991 45.5548 51.1056C45.6015 51.172 45.6592 51.2079 45.731 51.2159C46.3978 51.2925 46.6883 49.9359 46.691 49.9222L46.7724 49.5261L46.8444 49.9241C46.9166 50.3233 47.2019 51.3603 47.6487 51.3656C47.6496 51.3656 47.6506 51.3656 47.6514 51.3656C48.1034 51.3656 48.633 50.0164 48.7993 49.4954L48.9482 49.5431C48.8833 49.7458 48.298 51.5217 47.6509 51.5217Z" fill="black"/>
<path d="M22.9888 42.0855C22.938 42.0855 22.8897 42.0772 22.8445 42.0597C22.3875 41.8806 22.4084 41.0449 22.46 40.5701C22.1754 40.9298 21.6143 41.5022 21.09 41.2353C20.9847 41.1817 20.9153 41.0923 20.8837 40.9693C20.7172 40.3214 21.7137 38.8457 21.7562 38.7832L21.8852 38.871C21.6069 39.2806 20.9114 40.4493 21.035 40.9306C21.0553 41.0092 21.0966 41.0634 21.161 41.096C21.7632 41.4015 22.5089 40.2371 22.5164 40.2254L22.7325 39.8844L22.6592 40.2813C22.5856 40.6802 22.4859 41.7513 22.9019 41.9141C23.3222 42.0797 24.2989 41.001 24.6394 40.5718L24.7617 40.6688C24.6389 40.8237 23.619 42.0855 22.9888 42.0855Z" fill="black"/>
<path d="M32.5853 58.1169C32.5347 58.1169 32.4864 58.1086 32.4412 58.0911C31.984 57.9119 32.0051 57.0764 32.0567 56.6016C31.7721 56.9615 31.2108 57.5337 30.6866 57.2667C30.5811 57.2131 30.5117 57.1237 30.4802 57.0007C30.3137 56.3529 31.3101 54.877 31.3526 54.8145L31.4816 54.9023C31.2033 55.3118 30.5078 56.4805 30.6316 56.9618C30.6517 57.0406 30.693 57.0948 30.7575 57.1276C31.3598 57.4333 32.1056 56.2686 32.1129 56.2569L32.3292 55.9158L32.2558 56.3129C32.1822 56.7118 32.0823 57.7827 32.4984 57.9456C32.9171 58.1107 33.8953 57.0324 34.2359 56.6032L34.3583 56.7002C34.2356 56.8549 33.2154 58.1169 32.5853 58.1169Z" fill="black"/>
<path d="M51.4573 62.5621C51.4553 62.5621 51.4536 62.5621 51.4515 62.5621C50.9604 62.554 50.6883 61.7635 50.571 61.3004C50.4297 61.7369 50.1003 62.4677 49.5193 62.4023C49.4018 62.3888 49.3056 62.3291 49.2331 62.2249C48.8509 61.6758 49.2695 59.945 49.2874 59.8716L49.4392 59.9088C49.3212 60.3899 49.0774 61.7278 49.3614 62.1355C49.4078 62.2022 49.4653 62.2385 49.5372 62.2468C50.2092 62.3229 50.5005 60.9712 50.5035 60.9576L50.5869 60.5627L50.6568 60.9603C50.7271 61.36 51.0074 62.3985 51.4542 62.4059C51.4556 62.4059 51.4568 62.4059 51.4579 62.4059C51.9097 62.4059 52.445 61.0612 52.6138 60.5413L52.7624 60.5896C52.6965 60.792 52.1033 62.562 51.4573 62.5621Z" fill="black"/>
<path d="M58.9766 5.30274L60.5494 0.710024L56.6473 3.54416L52.6848 0.414062L54.7058 5.01599L49.973 7.80215L54.2185 7.52369C52.8489 8.22422 51.3936 8.91943 49.8541 9.59511L49.8543 9.59839C50.2013 10.1894 50.7508 10.9476 51.5941 11.6375C52.6434 12.501 53.7201 12.9085 54.4656 13.1085C54.7339 10.9771 55.1871 9.38291 55.6037 8.26891L56.1617 12.6641L57.8673 7.71387L62.6981 8.28094L58.9766 5.30274Z" fill="#FFD200"/>
<path d="M54.5319 13.2072L54.4451 13.1839C53.3668 12.8944 52.3909 12.3943 51.5443 11.6977C50.8445 11.1255 50.2531 10.4323 49.7866 9.63787L49.777 9.62131L49.7737 9.54833L49.8224 9.52349C51.1744 8.93016 52.5255 8.29276 53.8434 7.62646L49.6496 7.90148L54.6061 4.98375L52.4872 0.158203L56.6492 3.44597L60.7033 0.501512L59.0683 5.27596L62.9597 8.39043L57.9206 7.79897L56.1265 13.0066L55.5669 8.59951C55.0966 9.9368 54.7525 11.455 54.5431 13.1185L54.5319 13.2072ZM49.9649 9.63177C50.4151 10.3796 50.9794 11.0339 51.6435 11.5771C52.4501 12.2407 53.3769 12.7223 54.3995 13.0094C54.6277 11.2422 55.0082 9.63865 55.5304 8.24151L55.6413 7.94508L56.197 12.322L57.8138 7.62896L62.4364 8.17166L58.8849 5.32956L60.3953 0.918577L56.6453 3.64223L52.8825 0.669807L54.8055 5.04844L50.2961 7.70271L54.5909 7.42113L54.254 7.59349C52.852 8.31026 51.4094 8.99579 49.9649 9.63177Z" fill="black"/>
<path d="M54.1298 24.6513C53.346 24.8877 52.5505 25.0879 51.7493 25.2449C51.3062 25.3407 50.8622 25.4196 50.4142 25.4856C50.2948 25.5049 50.1753 25.5209 50.0557 25.537C46.9647 25.9589 43.779 25.757 40.7231 25.1443C39.2711 24.8525 37.8018 24.5481 36.389 24.1041C35.4518 23.81 34.55 23.4238 33.6783 22.9726C33.8848 22.8219 34.0846 22.6749 34.2845 22.5278C35.2132 22.9829 36.1748 23.3627 37.1816 23.6432C38.0731 23.8895 38.97 24.112 39.8757 24.3075C40.3115 24.3994 40.7438 24.4847 41.1821 24.5597C41.1854 24.5596 41.1854 24.5596 41.1854 24.5596C42.8113 24.8527 44.4519 25.0382 46.0986 25.0794C48.7661 25.1466 51.3979 24.7644 53.9442 24.012C53.9486 24.0319 53.9531 24.055 53.9608 24.0747C54.009 24.2394 54.0575 24.4041 54.1056 24.5655L54.1058 24.5688C54.1137 24.5952 54.1219 24.6249 54.1298 24.6513Z" fill="black"/>
<path d="M42.1201 23.1945C42.1578 23.9489 41.5768 24.591 40.8224 24.6288C40.0679 24.6665 39.4258 24.0855 39.388 23.3311C39.3504 22.5766 39.9313 21.9346 40.6858 21.8968C41.4404 21.8591 42.0825 22.4401 42.1201 23.1945Z" fill="#FFD200"/>
<path d="M40.7522 24.7086C40.3934 24.7086 40.0523 24.5773 39.7841 24.3348C39.4979 24.0757 39.3296 23.7204 39.3103 23.3349C39.291 22.9491 39.423 22.5789 39.6821 22.2926C39.9412 22.0062 40.2965 21.8379 40.682 21.8187C41.4741 21.7794 42.1585 22.3942 42.1982 23.1903C42.2381 23.9867 41.6226 24.6669 40.8264 24.7066C40.8014 24.708 40.7767 24.7086 40.7522 24.7086ZM40.7548 21.9731C40.7333 21.9731 40.7115 21.9735 40.6898 21.9746C40.3457 21.9918 40.029 22.142 39.7979 22.3975C39.5668 22.653 39.4489 22.983 39.4661 23.3269C39.4833 23.671 39.6335 23.9879 39.889 24.2189C40.1443 24.4501 40.4732 24.5672 40.8183 24.5506C41.5286 24.5151 42.0776 23.9085 42.0421 23.1983C42.0077 22.5098 41.4368 21.9731 40.7548 21.9731Z" fill="black"/>
<path d="M52.6553 26.465C52.693 27.2195 52.112 27.8616 51.3576 27.8994C50.6031 27.937 49.9611 27.356 49.9232 26.6016C49.8856 25.8472 50.4666 25.2051 51.221 25.1673C51.9756 25.1295 52.6177 25.7106 52.6553 26.465Z" fill="#FFD200"/>
<path d="M51.2885 27.9792C50.5242 27.9792 49.884 27.3773 49.8454 26.6055C49.8056 25.8094 50.4211 25.1292 51.2172 25.0893C52.0112 25.0484 52.6936 25.6648 52.7334 26.4612C52.7733 27.2575 52.1578 27.9377 51.3616 27.9774C51.3371 27.9788 51.3127 27.9792 51.2885 27.9792ZM51.29 25.2439C51.2685 25.2439 51.2468 25.2443 51.225 25.2454C50.5147 25.2812 49.9657 25.8877 50.0012 26.5977C50.037 27.3079 50.648 27.8574 51.3535 27.8216C52.0639 27.786 52.6128 27.1795 52.5773 26.4693C52.543 25.7806 51.972 25.2439 51.29 25.2439Z" fill="black"/>
<path d="M58.1862 55.4527C55.1697 55.56 52.1453 55.5774 49.1322 55.4171C46.2229 55.2616 43.3275 54.9183 40.4823 54.3049C40.0634 54.2156 39.644 54.1195 39.2244 54.0168C39.1872 54.0087 39.1534 54.0002 39.1161 53.9888C35.9749 53.2064 32.9523 52.0573 30.0194 50.6928C27.0556 49.3133 24.1897 47.618 21.5341 45.7149C21.3086 45.5524 21.0865 45.3895 20.8643 45.2236C20.583 45.0137 20.3083 44.8001 20.0333 44.5832C20.03 44.5834 20.03 44.5834 20.0299 44.5801C19.2534 43.9604 18.5091 43.3123 17.796 42.6226C16.9912 41.8371 16.2408 41.0021 15.4967 40.1602C15.5225 40.1422 15.5517 40.124 15.5775 40.106C15.7325 39.998 15.8877 39.8899 16.046 39.7817C16.8782 40.7162 17.7203 41.6469 18.6352 42.4971C19.9741 43.7372 21.4176 44.8618 22.9326 45.8793C24.7451 47.0958 26.6265 48.2218 28.5687 49.2245L28.5721 49.2277C28.775 49.3378 28.9806 49.4413 29.1864 49.5446C32.8075 51.3659 36.6321 52.7826 40.5931 53.6477C44.0301 54.3953 47.5305 54.7384 51.0455 54.8401L51.0488 54.84C51.6382 54.8606 52.2237 54.8715 52.8122 54.8756C52.8156 54.8787 52.8155 54.8754 52.8155 54.8754C54.5311 54.89 56.2443 54.8578 57.956 54.7958C57.9681 54.8353 57.9832 54.8712 57.9953 54.9108C58.0581 55.0948 58.1206 55.2755 58.1862 55.4527Z" fill="black"/>
<path d="M30.8539 48.1408C30.8915 48.8952 30.3106 49.5373 29.5561 49.5751C28.8017 49.6128 28.1596 49.0318 28.1218 48.2774C28.0841 47.523 28.6651 46.8809 29.4195 46.8431C30.174 46.8052 30.8162 47.3864 30.8539 48.1408Z" fill="#FFD200"/>
<path d="M29.4869 49.6549C28.7226 49.6549 28.0824 49.053 28.0438 48.2812C28.0244 47.8954 28.1566 47.5253 28.4157 47.2389C28.6748 46.9525 29.0301 46.7842 29.4156 46.765C30.2077 46.7256 30.8921 47.3406 30.9318 48.1368C30.9717 48.9331 30.3562 49.6133 29.56 49.653C29.5356 49.6543 29.5111 49.6549 29.4869 49.6549ZM29.4886 46.9195C29.467 46.9195 29.4453 46.92 29.4236 46.9211C29.0795 46.9383 28.7626 47.0884 28.5316 47.3439C28.3005 47.5994 28.1827 47.9294 28.1997 48.2734C28.2355 48.9837 28.8445 49.5341 29.552 49.4972C30.2624 49.4616 30.8114 48.8551 30.7759 48.1449C30.7414 47.4563 30.1704 46.9195 29.4886 46.9195Z" fill="black"/>
<path d="M40.9025 55.2228C40.9402 55.9773 40.3592 56.6194 39.6048 56.6572C38.8503 56.6948 38.2082 56.1139 38.1704 55.3594C38.1328 54.605 38.7138 53.9629 39.4682 53.9251C40.2226 53.8873 40.8647 54.4684 40.9025 55.2228Z" fill="#FFD200"/>
<path d="M39.5357 56.737C38.7711 56.737 38.131 56.1351 38.0926 55.3635C38.0527 54.5672 38.6683 53.887 39.4643 53.8473C40.2587 53.8048 40.9408 54.4228 40.9805 55.219C41.0203 56.0153 40.4048 56.6955 39.6088 56.7352C39.5843 56.7364 39.5599 56.737 39.5357 56.737ZM39.5371 54.0017C39.5155 54.0017 39.4938 54.0021 39.4721 54.0032C38.7619 54.0389 38.2129 54.6453 38.2484 55.3555C38.284 56.0656 38.8911 56.613 39.6007 56.5792C40.3109 56.5436 40.8598 55.9371 40.8244 55.2269C40.79 54.5384 40.219 54.0017 39.5371 54.0017Z" fill="black"/>
<path d="M53.3177 53.7472C53.3553 54.5017 52.7744 55.1438 52.0199 55.1816C51.2655 55.2192 50.6234 54.6383 50.5856 53.8838C50.5479 53.1294 51.1289 52.4873 51.8834 52.4495C52.6378 52.4118 53.2799 52.9928 53.3177 53.7472Z" fill="#FFD200"/>
<path d="M51.9499 55.2612C51.591 55.2612 51.2497 55.13 50.9816 54.8875C50.6951 54.6284 50.5268 54.2732 50.5076 53.8877C50.4678 53.0914 51.0833 52.4112 51.8795 52.3715C52.6709 52.3313 53.356 52.947 53.3957 53.7432C53.4355 54.5395 52.82 55.2197 52.0238 55.2594C51.999 55.2606 51.9743 55.2612 51.9499 55.2612ZM51.9524 52.5259C51.9309 52.5259 51.9092 52.5263 51.8874 52.5274C51.1771 52.5629 50.6281 53.1695 50.6636 53.8797C50.6808 54.2237 50.8309 54.5404 51.0864 54.7717C51.3418 55.0026 51.6701 55.1197 52.0159 55.1034C52.7262 55.0678 53.2752 54.4613 53.2397 53.7511C53.2052 53.0628 52.6342 52.5259 51.9524 52.5259Z" fill="black"/>
<path d="M21.0441 45.8366C21.0817 46.591 20.5007 47.2331 19.7463 47.2709C18.9919 47.3086 18.3498 46.7276 18.312 45.9732C18.2743 45.2188 18.8553 44.5767 19.6097 44.5389C20.3642 44.501 21.0064 45.0822 21.0441 45.8366Z" fill="#FFD200"/>
<path d="M19.6772 47.3508C18.9126 47.351 18.2726 46.7489 18.2341 45.9773C18.1943 45.1809 18.8098 44.5007 19.6058 44.461C20.4001 44.4187 21.0822 45.0366 21.122 45.8327C21.1414 46.2185 21.0094 46.5887 20.7503 46.875C20.4912 47.1614 20.1358 47.3297 19.7503 47.3489C19.7258 47.3502 19.7014 47.3508 19.6772 47.3508ZM19.6786 44.6154C19.6571 44.6154 19.6353 44.6159 19.6136 44.617C18.9034 44.6526 18.3545 45.2591 18.3899 45.9693C18.4256 46.6795 19.0331 47.2303 19.7422 47.193C20.0863 47.1758 20.4031 47.0256 20.6342 46.7701C20.8654 46.5146 20.9831 46.1846 20.9659 45.8407C20.9315 45.1523 20.3605 44.6154 19.6786 44.6154Z" fill="black"/>
<path d="M56.0898 48.4174C56.1485 48.6551 56.2073 48.8962 56.2696 49.1404C54.8155 48.6048 53.4221 47.9457 52.0617 47.2114C50.7012 46.4771 49.3716 45.6911 48.0791 44.8465C47.4989 44.4743 46.9281 44.0883 46.3665 43.6886C43.6575 41.7883 41.1267 39.6415 38.8178 37.2532C35.3984 33.7169 32.427 29.7739 29.505 25.8217C29.6864 25.7056 29.8678 25.5896 30.0491 25.4703C30.0557 25.4667 30.0588 25.4631 30.0654 25.4595C31.5136 27.4162 32.9715 29.3657 34.5004 31.2615C36.2355 33.4078 38.0097 35.5287 39.9721 37.4731C41.8783 39.3634 43.9387 41.1257 46.1038 42.7124C48.3387 44.3557 50.7472 45.7931 53.2108 47.0639C54.0617 47.4994 54.93 47.8872 55.8132 48.2341C55.8985 48.2699 55.9871 48.3022 56.0723 48.3349C56.27 48.4119 56.4642 48.4858 56.6619 48.5594C56.4575 48.5527 56.2645 48.5023 56.0898 48.4174Z" fill="black"/>
<path d="M48.0873 44.9416C48.1249 45.696 47.544 46.3381 46.7895 46.3759C46.0351 46.4136 45.393 45.8326 45.3552 45.0782C45.3175 44.3237 45.8985 43.6816 46.6529 43.6438C47.4074 43.6062 48.0496 44.1871 48.0873 44.9416Z" fill="#FFD200"/>
<path d="M46.7195 46.4556C46.3606 46.4556 46.0192 46.3245 45.7512 46.0818C45.4647 45.8227 45.2964 45.4675 45.2772 45.0819C45.2374 44.2856 45.8529 43.6054 46.649 43.5657C47.0374 43.5472 47.405 43.6785 47.6913 43.9376C47.9778 44.1967 48.146 44.5518 48.1653 44.9373C48.2051 45.7337 47.5896 46.4139 46.7934 46.4536C46.7687 46.455 46.7441 46.4556 46.7195 46.4556ZM46.7228 43.7202C46.7009 43.7202 46.6791 43.7207 46.657 43.7218C45.9466 43.7574 45.3977 44.3639 45.4332 45.0741C45.4504 45.4182 45.6005 45.7349 45.856 45.966C46.1115 46.197 46.4415 46.3135 46.7855 46.2978C47.4958 46.2623 48.0448 45.6557 48.0093 44.9455C47.9921 44.6014 47.842 44.2848 47.5865 44.0535C47.3474 43.8373 47.043 43.7202 46.7228 43.7202Z" fill="black"/>
<path d="M58.0608 47.1222C58.0986 47.8791 57.5188 48.5198 56.7653 48.5574C56.7321 48.5591 56.6986 48.5607 56.6652 48.5591C56.6619 48.5593 56.6619 48.5593 56.6619 48.5593C56.4577 48.5527 56.2645 48.5023 56.0898 48.4174C55.9904 48.3688 55.8971 48.3068 55.8132 48.234C55.5341 48.0005 55.3496 47.652 55.3299 47.2586C55.3126 46.9118 55.4268 46.5885 55.6315 46.3376C55.864 46.0418 56.222 45.8467 56.6289 45.8264C57.3824 45.7889 58.0231 46.3687 58.0608 47.1222Z" fill="#FFD200"/>
<path d="M56.6941 48.6377C56.6831 48.6377 56.672 48.6376 56.6611 48.637C56.4495 48.6307 56.2464 48.5804 56.0554 48.4877C55.9499 48.436 55.8513 48.3705 55.762 48.293C55.4582 48.039 55.2718 47.663 55.2518 47.2625C55.2339 46.9081 55.3472 46.5623 55.5707 46.2882C55.8237 45.9664 56.2082 45.7694 56.6247 45.7485C57.4227 45.7081 58.099 46.3232 58.1387 47.1183C58.1581 47.5052 58.0264 47.8758 57.7677 48.1619C57.5093 48.4482 57.1546 48.6163 56.7689 48.6354C56.7442 48.6367 56.7191 48.6377 56.6941 48.6377ZM56.6975 45.9028C56.6759 45.9028 56.6545 45.9033 56.6327 45.9044C56.2614 45.9232 55.9188 46.0986 55.6927 46.3858C55.493 46.6309 55.3921 46.9392 55.4079 47.2547C55.4257 47.6119 55.5918 47.9471 55.8634 48.1741C55.9437 48.2438 56.0309 48.3016 56.124 48.3473C56.2948 48.4301 56.4765 48.4752 56.6642 48.4812C56.7002 48.483 56.7308 48.481 56.7613 48.4795C57.105 48.4623 57.4215 48.3124 57.6518 48.0572C57.8826 47.8019 57.9999 47.4712 57.9828 47.1262C57.9484 46.4387 57.3782 45.9028 56.6975 45.9028Z" fill="black"/>
<path d="M37.0896 44.7152C37.0806 44.7172 37.0733 44.7166 37.0644 44.7186C34.3257 44.9672 31.6288 43.7798 29.756 41.8048C29.0883 41.1015 28.4371 40.2058 27.9802 39.2318C27.2633 37.717 27.0237 36.0137 27.951 34.5631C28.814 33.2218 30.0871 33.4757 31.2921 34.2076C32.3546 34.8547 33.3674 35.8765 33.9896 36.5055C34.5325 37.0468 35.1056 37.5457 35.7871 37.9015C36.8838 38.4817 38.1446 38.5713 39.2557 39.0915C39.4751 39.1938 39.7152 39.3243 39.9537 39.4884C40.6456 39.9503 41.3368 40.6222 41.529 41.3391C42.0928 43.486 38.6291 44.5727 37.0896 44.7152Z" fill="black"/>
<path d="M36.3537 44.8278C33.9301 44.8278 31.4913 43.7485 29.6991 41.8585C28.9686 41.0891 28.3331 40.1681 27.9093 39.2649C27.3161 38.0117 26.8303 36.1711 27.8851 34.5211C28.6447 33.3404 29.8048 33.213 31.3325 34.1409C32.4087 34.7963 33.433 35.8318 34.0449 36.4506C34.4892 36.8935 35.093 37.451 35.8232 37.8323C36.399 38.137 37.0344 38.3084 37.6491 38.4741C38.1964 38.6216 38.7624 38.7742 39.2886 39.0207C39.5418 39.1388 39.7803 39.2744 39.9978 39.424C40.3994 39.6921 41.3618 40.4148 41.6043 41.319C41.7463 41.8601 41.652 42.372 41.3235 42.8413C40.4737 44.055 38.2861 44.6814 37.1021 44.7922L37.0835 44.7947C36.841 44.8168 36.5972 44.8278 36.3537 44.8278ZM37.0572 44.641L37.0832 44.7163L37.0733 44.6389L37.0824 44.6374C38.3225 44.5227 40.4186 43.8617 41.1955 42.7517C41.4963 42.322 41.5831 41.8535 41.4532 41.3593C41.2246 40.5067 40.2978 39.8124 39.9101 39.5535C39.6988 39.4082 39.4679 39.2769 39.2225 39.1624C38.7084 38.9217 38.1492 38.7708 37.6084 38.6252C36.9855 38.4572 36.3415 38.2834 35.7506 37.9707C35.0021 37.5798 34.3865 37.0119 33.9343 36.5611C33.3269 35.947 32.3111 34.9199 31.2513 34.2745C29.7896 33.3866 28.7316 33.4946 28.0167 34.6055C27.0005 36.1951 27.4743 37.9806 28.0509 39.1985C28.4676 40.087 29.0933 40.9933 29.8126 41.751C31.7523 43.7965 34.4595 44.8761 37.0572 44.641Z" fill="black"/>
<path d="M37.0895 44.7153C37.0806 44.7173 37.0733 44.7167 37.0644 44.7187C34.3257 44.9673 31.6288 43.7799 29.756 41.8049C29.0883 41.1015 28.4371 40.2058 27.9802 39.2318C29.659 38.5099 31.8702 38.6713 33.8102 39.8386C35.7602 41.0084 36.9434 42.8865 37.0895 44.7153Z" fill="#FF2A2A"/>
<path d="M36.3537 44.8277C33.9301 44.8277 31.4913 43.7484 29.6991 41.8584C28.9686 41.0889 28.3331 40.1679 27.9093 39.2647L27.8751 39.1918L27.9493 39.1599C29.7061 38.4044 31.9677 38.6387 33.8504 39.7713C35.7438 40.9072 37.0149 42.7991 37.1674 44.7088L37.1727 44.7756L37.0836 44.7947C36.8411 44.8166 36.5972 44.8277 36.3537 44.8277ZM28.0859 39.2719C28.5021 40.1365 29.113 41.0139 29.8126 41.7507C31.7391 43.7826 34.4234 44.8622 37.0049 44.6452C36.8291 42.8108 35.5955 41.0005 33.7699 39.9053C31.956 38.8139 29.7866 38.5745 28.0859 39.2719Z" fill="black"/>
<path d="M37.5626 27.1522L37.1091 27.9932L40.8717 30.0224L41.3252 29.1814L37.5626 27.1522Z" fill="black"/>
<path d="M40.901 30.1288L37.001 28.0255L37.5287 27.0469L41.4287 29.1502L40.901 30.1288ZM37.2127 27.9621L40.8374 29.9171L41.2168 29.2138L37.5921 27.2588L37.2127 27.9621Z" fill="black"/>
<path d="M55.3015 36.7202C52.6513 41.6344 47.4882 44.016 43.6485 42.1491C43.5702 42.1102 43.4921 42.0711 43.4152 42.0297C43.1654 41.895 42.9292 41.745 42.7033 41.5811L42.7011 41.58C42.5888 41.4967 42.4822 41.4134 42.3761 41.3239C41.8329 40.8692 41.3685 40.3244 40.9935 39.7113C39.316 36.9788 39.3302 32.8784 41.3237 29.1821L55.3015 36.7202Z" fill="black"/>
<path d="M46.4939 42.8707C45.4977 42.8707 44.5227 42.6607 43.6143 42.2191C43.5277 42.176 43.4523 42.1382 43.3779 42.0982C43.1332 41.9661 42.8905 41.8134 42.6572 41.6442C42.5348 41.5539 42.4273 41.4692 42.3258 41.3834C41.7807 40.9273 41.3099 40.3782 40.9267 39.7519C39.183 36.9115 39.3118 32.748 41.2549 29.1449L41.2919 29.0762L55.4073 36.6885L55.3702 36.7573C53.3135 40.5707 49.7907 42.8707 46.4939 42.8707ZM41.3555 29.2877C39.4737 32.8268 39.3558 36.8943 41.0599 39.67C41.4343 40.2819 41.894 40.8182 42.4262 41.2636C42.5255 41.3473 42.6306 41.43 42.7475 41.5169C42.9768 41.6826 43.2132 41.8317 43.4523 41.9605C43.5251 41.9999 43.599 42.0367 43.6732 42.0738C45.5207 42.9724 47.7246 42.9113 49.8879 41.9066C52.0414 40.9063 53.9236 39.0774 55.1952 36.7516L41.3555 29.2877Z" fill="black"/>
<path d="M49.9879 33.8543C47.5196 36.4275 44.9514 38.8791 42.3761 41.3233C41.8329 40.8686 41.3685 40.3239 40.9935 39.7107C43.3352 37.3927 45.7609 35.1749 48.0701 32.8198L49.9879 33.8543Z" fill="white"/>
<path d="M42.3793 41.4282L42.3259 41.3835C41.7807 40.9271 41.3099 40.3782 40.9267 39.7517L40.8945 39.6989L40.9384 39.6554C41.9241 38.6799 42.9409 37.7062 43.9243 36.7646C45.2777 35.4689 46.6772 34.1291 48.0142 32.7657L48.0554 32.7236L50.1154 33.8343L50.0443 33.9084C47.6204 36.4353 45.1617 38.7874 42.43 41.3803L42.3793 41.4282ZM41.0927 39.7226C41.4482 40.2924 41.8785 40.7951 42.3731 41.2187C45.0566 38.6715 47.4768 36.355 49.8604 33.8743L48.0848 32.9168C46.7586 34.2675 45.373 35.594 44.0326 36.8774C43.0642 37.8043 42.0634 38.7626 41.0927 39.7226Z" fill="black"/>
<path d="M51.25 34.5346C48.7609 37.1258 46.1671 39.5892 43.6485 42.1483C43.5702 42.1094 43.4921 42.0704 43.4152 42.029C43.1653 41.8943 42.9292 41.7442 42.7032 41.5803C44.737 39.6494 46.7714 37.7122 48.7509 35.7133C49.2924 35.1642 49.8296 34.6129 50.3617 34.0557L51.25 34.5346Z" fill="white"/>
<path d="M43.6644 42.2439L43.6136 42.2186C43.5278 42.1757 43.4524 42.1379 43.378 42.0978C43.1333 41.9657 42.8906 41.813 42.6573 41.6438L42.5814 41.5888L42.6495 41.5241C44.8234 39.46 46.7789 37.5943 48.6956 35.6587C49.2869 35.0591 49.8133 34.517 50.3054 34.002L50.3465 33.959L51.378 34.5153L51.3067 34.5895C49.8713 36.0837 48.3768 37.5596 46.9316 38.9869C45.8694 40.0357 44.7711 41.12 43.7046 42.2039L43.6644 42.2439ZM42.8256 41.5721C43.0295 41.7155 43.2398 41.846 43.4522 41.9603C43.5117 41.9924 43.5721 42.0229 43.6325 42.0534C44.6875 40.9822 45.7719 39.9113 46.8212 38.8752C48.2421 37.4721 49.7102 36.0223 51.1224 34.5548L50.377 34.1527C49.8963 34.6556 49.3821 35.1847 48.8065 35.7682C46.9083 37.6851 44.973 39.5332 42.8256 41.5721Z" fill="black"/>
<path d="M37.5607 27.1525C34.8565 32.167 29.5357 34.5444 25.6745 32.462C25.5549 32.3975 25.4401 32.3292 25.3268 32.2582C25.0172 32.0654 24.7311 31.8496 24.4662 31.6097C24.3615 31.5177 24.2617 31.4218 24.1665 31.3219C23.6685 30.8141 23.2558 30.2195 22.9305 29.5652C21.5862 26.8541 21.7246 23.0598 23.5829 19.6143L37.5607 27.1525Z" fill="black"/>
<path d="M28.7167 33.2915C27.6413 33.2915 26.5944 33.0472 25.6373 32.5311C25.5277 32.4719 25.4158 32.4064 25.2852 32.3248C24.9741 32.1311 24.6809 31.9099 24.4136 31.668C24.3086 31.5755 24.206 31.4771 24.1098 31.3761C23.6171 30.8735 23.1963 30.2757 22.8606 29.6005C21.4568 26.7689 21.7071 22.9284 23.5141 19.5775L23.5511 19.5088L37.6667 27.1211L37.6296 27.1899C35.578 30.9935 32.0143 33.2915 28.7167 33.2915ZM23.6147 19.7204C21.8651 23.0109 21.6283 26.7633 23.0005 29.5308C23.3289 30.1914 23.7399 30.7756 24.2221 31.2674C24.3161 31.3658 24.415 31.461 24.5176 31.551C24.7789 31.7877 25.0647 32.0031 25.3679 32.192C25.4955 32.2718 25.6048 32.3358 25.7113 32.3933C29.5101 34.442 34.7636 32.1053 37.4544 27.1841L23.6147 19.7204Z" fill="black"/>
<path d="M31.6599 23.9703C29.23 26.5029 26.7033 28.9184 24.1665 31.322C23.6685 30.8142 23.2558 30.2196 22.9305 29.5653C25.1907 27.3423 27.5194 25.2018 29.7421 22.936L31.6599 23.9703Z" fill="white"/>
<path d="M24.1645 31.4314L24.1106 31.3764C23.6171 30.873 23.1963 30.2753 22.8606 29.6001L22.8353 29.5493L22.8758 29.5096C23.7687 28.6315 24.687 27.7519 25.5751 26.9014C26.9355 25.5986 28.3422 24.2515 29.6863 22.8812L29.7276 22.8394L31.7875 23.9502L31.7164 24.0243C29.2626 26.5817 26.6677 29.0599 24.2203 31.3786L24.1645 31.4314ZM23.0258 29.5811C23.3377 30.1967 23.7218 30.7447 24.1686 31.2121C26.5747 28.932 29.1204 26.4996 31.5321 23.9902L29.7567 23.0325C28.4233 24.3901 27.0305 25.724 25.6832 27.0144C24.8089 27.8516 23.9051 28.717 23.0258 29.5811Z" fill="black"/>
<path d="M32.9221 24.6506C30.4344 27.2393 27.8439 29.7014 25.3267 32.258C25.0171 32.0651 24.731 31.8493 24.4661 31.6095C26.4703 29.7079 28.4708 27.7978 30.4229 25.8292C30.9643 25.2801 31.5015 24.7288 32.0336 24.1714L32.9221 24.6506Z" fill="white"/>
<path d="M25.3384 32.3574L25.2852 32.3244C24.9741 32.1305 24.681 31.9094 24.4136 31.6675L24.3513 31.6109L24.4125 31.553C26.3353 29.7286 28.3789 27.7798 30.3674 25.7744C30.9535 25.1803 31.4801 24.6383 31.9773 24.1177L32.0184 24.0747L33.0499 24.631L32.9787 24.7052C31.5415 26.2007 30.0456 27.6781 28.5988 29.107C27.5404 30.1522 26.446 31.2333 25.3826 32.3133L25.3384 32.3574ZM24.5814 31.6077C24.8093 31.808 25.0555 31.993 25.3149 32.1583C26.3653 31.0926 27.4445 30.0266 28.4888 28.9953C29.9109 27.5909 31.3806 26.1394 32.7946 24.6705L32.0492 24.2685C31.5637 24.7765 31.0493 25.3056 30.4786 25.8842C28.5094 27.8699 26.4872 29.7995 24.5814 31.6077Z" fill="black"/>
<path d="M35.558 32.9723C35.0051 33.7128 35.2061 34.7979 36.0069 35.3959C36.8078 35.9939 37.9052 35.8783 38.4582 35.1377C39.0111 34.3972 38.8101 33.3121 38.0093 32.7141C37.2085 32.1163 36.111 32.2317 35.558 32.9723Z" fill="#FFD200"/>
<path d="M37.1383 35.8559C36.7344 35.8559 36.3182 35.7259 35.9602 35.4585C35.5571 35.1576 35.2864 34.7291 35.198 34.2519C35.1092 33.7725 35.2149 33.3013 35.4955 32.9257C35.776 32.5499 36.1976 32.3148 36.6826 32.2637C37.1639 32.213 37.6529 32.3508 38.056 32.6517C38.8902 33.2744 39.0986 34.4108 38.5209 35.1846C38.191 35.6262 37.6754 35.8559 37.1383 35.8559ZM36.8794 32.4097C36.8192 32.4097 36.7591 32.4128 36.699 32.4192C36.2579 32.4656 35.8751 32.6786 35.6208 33.0191C35.3666 33.3598 35.2711 33.7875 35.3518 34.2234C35.433 34.6619 35.6822 35.056 36.0537 35.3335C36.8187 35.9045 37.8695 35.7959 38.3957 35.0913C38.9219 34.3864 38.7276 33.3484 37.9627 32.7769C37.6415 32.5372 37.2625 32.4097 36.8794 32.4097Z" fill="black"/>
<path d="M37.2412 32.9653C37.6327 33.5775 36.682 34.1872 36.2896 33.5739C35.8982 32.9615 36.849 32.352 37.2412 32.9653Z" fill="white"/>
<path d="M34.5939 0.000767635L33.0123 0.449219L35.3159 8.57345L36.8975 8.125L34.5939 0.000767635Z" fill="#009CF7"/>
<path d="M15.264 12.1427L14.3079 13.479L20.6289 18.0015L21.585 16.6652L15.264 12.1427Z" fill="#009CF7"/>
<path d="M24.0611 3.95197L22.6384 4.7749L27.178 12.6229L28.6007 11.7999L24.0611 3.95197Z" fill="#009CF7"/>
</g>
<defs>
<clipPath id="clip0_3_824">
<rect width="80" height="80" fill="white"/>
</clipPath>
</defs>
</svg>
