<svg width="16" height="17" viewBox="0 0 16 17" fill="none" xmlns="http://www.w3.org/2000/svg">
<g clip-path="url(#clip0_4670_3192)">
<path fill-rule="evenodd" clip-rule="evenodd" d="M3.3315 12.3799C3.0475 12.0209 2.7025 11.2869 2.0885 10.3959C1.7405 9.89189 0.877496 8.94289 0.620496 8.46089C0.397496 8.03489 0.421496 7.84389 0.474496 7.49089C0.568496 6.86289 1.2125 6.37389 1.8995 6.43989C2.4185 6.48889 2.8585 6.83189 3.2545 7.15589C3.4935 7.35089 3.7875 7.72989 3.9645 7.94389C4.1275 8.13989 4.1675 8.22089 4.3415 8.45289C4.5715 8.75989 4.6435 8.91189 4.5555 8.57389C4.4845 8.07789 4.3685 7.23089 4.2005 6.48189C4.0725 5.91389 4.0415 5.82489 3.9195 5.38889C3.7905 4.92489 3.7245 4.59989 3.6035 4.10789C3.5195 3.75989 3.3685 3.04889 3.3275 2.64889C3.2705 2.10189 3.2405 1.20989 3.5915 0.799888C3.8665 0.478888 4.4975 0.381888 4.8885 0.579888C5.4005 0.838888 5.6915 1.58289 5.8245 1.87989C6.0635 2.41389 6.2115 3.03089 6.3405 3.84089C6.5045 4.87189 6.8065 6.30289 6.8165 6.60389C6.8405 6.23489 6.7485 5.45789 6.8125 5.10389C6.8705 4.78289 7.1405 4.40989 7.4785 4.30889C7.7645 4.22389 8.0995 4.19289 8.3945 4.25389C8.7075 4.31789 9.03749 4.54189 9.16049 4.75289C9.5225 5.37689 9.5295 6.65189 9.5445 6.58389C9.6305 6.20789 9.61549 5.35489 9.8285 4.99989C9.9685 4.76589 10.3255 4.55489 10.5155 4.52089C10.8095 4.46889 11.1705 4.45289 11.4795 4.51289C11.7285 4.56189 12.0655 4.85789 12.1565 4.99989C12.3745 5.34389 12.4985 6.31689 12.5355 6.65789C12.5505 6.79889 12.6095 6.26589 12.8285 5.92189C13.2345 5.28289 14.6715 5.15889 14.7265 6.56089C14.7515 7.21489 14.7465 7.18489 14.7465 7.62489C14.7465 8.14189 14.7345 8.45289 14.7065 8.82689C14.6755 9.22689 14.5895 10.1309 14.4645 10.5689C14.3785 10.8699 14.0935 11.5469 13.8125 11.9529C13.8125 11.9529 12.7385 13.2029 12.6215 13.7659C12.5035 14.3279 12.5425 14.3319 12.5195 14.7309C12.4965 15.1289 12.6405 15.6529 12.6405 15.6529C12.6405 15.6529 11.8385 15.7569 11.4065 15.6879C11.0155 15.6249 10.5315 14.8469 10.4065 14.6089C10.2345 14.2809 9.86749 14.3439 9.72449 14.5859C9.49949 14.9689 9.0155 15.6559 8.6735 15.6989C8.0055 15.7829 6.6195 15.7299 5.5345 15.7189C5.5345 15.7189 5.7195 14.7079 5.3075 14.3609C5.0025 14.1019 4.4775 13.5769 4.1635 13.3009L3.3315 12.3799Z" fill="white"/>
<path fill-rule="evenodd" clip-rule="evenodd" d="M3.3315 12.3799C3.0475 12.0209 2.7025 11.2869 2.0885 10.3959C1.7405 9.89189 0.877496 8.94289 0.620496 8.46089C0.397496 8.03489 0.421496 7.84389 0.474496 7.49089C0.568496 6.86289 1.2125 6.37389 1.8995 6.43989C2.4185 6.48889 2.8585 6.83189 3.2545 7.15589C3.4935 7.35089 3.7875 7.72989 3.9645 7.94389C4.1275 8.13989 4.1675 8.22089 4.3415 8.45289C4.5715 8.75989 4.6435 8.91189 4.5555 8.57389C4.4845 8.07789 4.3685 7.23089 4.2005 6.48189C4.0725 5.91389 4.0415 5.82489 3.9195 5.38889C3.7905 4.92489 3.7245 4.59989 3.6035 4.10789C3.5195 3.75989 3.3685 3.04889 3.3275 2.64889C3.2705 2.10189 3.2405 1.20989 3.5915 0.799888C3.8665 0.478888 4.4975 0.381888 4.8885 0.579888C5.4005 0.838888 5.6915 1.58289 5.8245 1.87989C6.0635 2.41389 6.2115 3.03089 6.3405 3.84089C6.5045 4.87189 6.8065 6.30289 6.8165 6.60389C6.8405 6.23489 6.7485 5.45789 6.8125 5.10389C6.8705 4.78289 7.1405 4.40989 7.4785 4.30889C7.7645 4.22389 8.0995 4.19289 8.3945 4.25389C8.7075 4.31789 9.03749 4.54189 9.16049 4.75289C9.52249 5.37689 9.5295 6.65189 9.5445 6.58389C9.6305 6.20789 9.6155 5.35489 9.8285 4.99989C9.9685 4.76589 10.3255 4.55489 10.5155 4.52089C10.8095 4.46889 11.1705 4.45289 11.4795 4.51289C11.7285 4.56189 12.0655 4.85789 12.1565 4.99989C12.3745 5.34389 12.4985 6.31689 12.5355 6.65789C12.5505 6.79889 12.6095 6.26589 12.8285 5.92189C13.2345 5.28289 14.6715 5.15889 14.7265 6.56089C14.7515 7.21489 14.7465 7.18489 14.7465 7.62489C14.7465 8.14189 14.7345 8.45289 14.7065 8.82689C14.6755 9.22689 14.5895 10.1309 14.4645 10.5689C14.3785 10.8699 14.0935 11.5469 13.8125 11.9529C13.8125 11.9529 12.7385 13.2029 12.6215 13.7659C12.5035 14.3279 12.5425 14.3319 12.5195 14.7309C12.4965 15.1289 12.6405 15.6529 12.6405 15.6529C12.6405 15.6529 11.8385 15.7569 11.4065 15.6879C11.0155 15.6249 10.5315 14.8469 10.4065 14.6089C10.2345 14.2809 9.86749 14.3439 9.72449 14.5859C9.49949 14.9689 9.0155 15.6559 8.6735 15.6989C8.0055 15.7829 6.6195 15.7299 5.5345 15.7189C5.5345 15.7189 5.7195 14.7079 5.3075 14.3609C5.0025 14.1019 4.4775 13.5769 4.1635 13.3009L3.3315 12.3799Z" stroke="black" stroke-width="0.75" stroke-linecap="round" stroke-linejoin="round"/>
<path d="M11.5664 12.7344V9.27539" stroke="black" stroke-width="0.75" stroke-linecap="round"/>
<path d="M9.55079 12.7461L9.53479 9.2731" stroke="black" stroke-width="0.75" stroke-linecap="round"/>
<path d="M7.55469 9.30469L7.57569 12.7307" stroke="black" stroke-width="0.75" stroke-linecap="round"/>
</g>
<defs>
<clipPath id="clip0_4670_3192">
<rect width="16" height="17" fill="white"/>
</clipPath>
</defs>
</svg>
