<svg width="81" height="80" viewBox="0 0 81 80" fill="none" xmlns="http://www.w3.org/2000/svg">
<g clip-path="url(#clip0_3_712)">
<path d="M66.9753 78.7133H13.0664C13.0664 78.7133 18.7863 68.845 27.4103 70.0806C36.0342 71.3163 35.1721 75.0449 41.9305 73.8281C46.7569 72.9592 45.6017 71.3944 51.2746 69.3727C59.2492 66.5306 66.9753 78.7133 66.9753 78.7133Z" fill="#F4F1E3"/>
<path d="M73.453 18.9511C73.4024 18.9511 73.3526 18.9277 73.3202 18.8838C73.2668 18.8106 73.2827 18.7077 73.356 18.6544C73.4637 18.5672 74.1541 17.8519 74.4772 17.4722C74.0969 17.5249 73.3937 17.6585 72.7538 17.7952C72.6644 17.8116 72.5777 17.7574 72.559 17.6688C72.5399 17.5799 72.5965 17.4927 72.6852 17.4738C74.8749 17.0061 74.9021 17.0938 74.951 17.2525C75.0349 17.5225 73.5655 18.9081 73.5497 18.9194C73.5205 18.941 73.4865 18.9511 73.453 18.9511Z" fill="#241726"/>
<path d="M70.9202 18.9931C70.9202 18.9931 71.0793 16.4337 72.4146 16.899C74.2643 17.5436 75.1149 22.312 71.6229 23.347C68.131 24.382 66.8724 21.51 66.8724 21.51L68.7482 21.0797C68.7482 21.0797 67.4055 19.8661 67.5326 18.8723C67.6596 17.8786 68.7087 18.7544 68.7087 18.7544C68.7087 18.7544 67.4833 16.4626 68.5019 16.3953C69.5204 16.3281 70.9202 18.9931 70.9202 18.9931Z" fill="#B1739A"/>
<path d="M72.4957 18.6936C72.1386 18.6936 71.7918 18.1708 71.6921 18.0076C71.6447 17.9299 71.6693 17.829 71.7468 17.7818C71.8238 17.7343 71.9251 17.7586 71.9724 17.8363C72.1097 18.0608 72.3251 18.3046 72.4507 18.3555C72.4522 18.219 72.3588 17.8821 72.2316 17.5822C72.1963 17.4988 72.2354 17.4024 72.3186 17.3671C72.4022 17.3318 72.4985 17.3704 72.534 17.454C72.6677 17.7693 72.8705 18.3333 72.726 18.5688C72.6807 18.6429 72.6076 18.6868 72.5201 18.6929C72.5119 18.6936 72.5038 18.6936 72.4957 18.6936Z" fill="#241726"/>
<path d="M69.3413 21.0711C69.3044 21.0711 69.2672 21.0586 69.2366 21.0333C69.1363 20.9498 68.2601 20.2026 68.3233 19.5887C68.3444 19.3858 68.4619 19.3103 68.5301 19.2834C68.731 19.2042 69.0208 19.3434 69.2649 19.5067C69.1529 18.8778 69.2111 18.5223 69.4399 18.4483C69.5372 18.4162 69.8335 18.3212 70.9201 20.0134C70.969 20.0898 70.9468 20.1914 70.8705 20.2404C70.794 20.2895 70.6926 20.267 70.6436 20.1911C70.2496 19.5772 69.7315 18.895 69.5352 18.7789C69.5086 18.9004 69.5616 19.3953 69.6797 19.8703C69.6969 19.9395 69.6672 20.0123 69.6061 20.0497C69.5451 20.0872 69.4671 20.0811 69.4127 20.0339C69.1191 19.7789 68.756 19.5618 68.6554 19.5878C68.656 19.5908 68.6526 19.6022 68.6504 19.6228C68.6158 19.9547 69.1205 20.5092 69.4468 20.7806C69.5163 20.8386 69.526 20.9423 69.4679 21.0118C69.4352 21.0509 69.3885 21.0711 69.3413 21.0711Z" fill="#241726"/>
<path d="M70.8772 22.7548C70.376 22.7548 70.0068 22.6566 69.9772 22.6487C69.8899 22.6246 69.8385 22.5345 69.8624 22.447C69.8863 22.3598 69.9765 22.309 70.064 22.3318C70.0768 22.3357 71.353 22.6718 72.3322 22.0348C72.9216 21.6512 73.2919 20.9896 73.433 20.0684C73.4465 19.9785 73.5283 19.9166 73.6202 19.9307C73.7099 19.9445 73.7715 20.0282 73.7577 20.1177C73.6018 21.137 73.1818 21.8749 72.5091 22.3115C71.9669 22.6634 71.3607 22.7548 70.8772 22.7548Z" fill="#241726"/>
<path d="M2.16621 40.4582C2.13339 40.4582 2.10011 40.4482 2.07136 40.4271C2.05558 40.4156 0.586674 39.0288 0.670111 38.7596C0.721361 38.5967 0.746674 38.5146 2.93605 38.9812C3.0248 39.0001 3.08121 39.0873 3.0623 39.1762C3.04339 39.2648 2.95605 39.3199 2.86746 39.3026C2.22761 39.166 1.52464 39.0323 1.14402 38.9796C1.4673 39.3593 2.15808 40.0753 2.26777 40.1637C2.33699 40.2198 2.35089 40.3224 2.29652 40.3934C2.26402 40.4357 2.21542 40.4582 2.16621 40.4582Z" fill="#241726"/>
<path d="M4.7009 40.5009C4.7009 40.5009 4.54184 37.9415 3.20653 38.4069C1.35684 39.0514 0.506215 43.8198 3.99825 44.8548C7.49012 45.8898 8.74872 43.0178 8.74872 43.0178L6.87309 42.5875C6.87309 42.5875 8.21575 41.3739 8.08872 40.3801C7.96168 39.3865 6.91262 40.2622 6.91262 40.2622C6.91262 40.2622 8.13793 37.9704 7.11934 37.9031C6.10075 37.8359 4.7009 40.5009 4.7009 40.5009Z" fill="#B1739A"/>
<path d="M3.12544 40.2018C3.11747 40.2018 3.10919 40.2018 3.10122 40.2011C3.01372 40.1951 2.94059 40.1511 2.89512 40.0771C2.75059 39.8416 2.95356 39.2775 3.08715 38.9619C3.12278 38.8782 3.21919 38.8394 3.30247 38.875C3.3859 38.9104 3.42481 39.0066 3.3895 39.0902C3.26231 39.3904 3.16887 39.7272 3.17044 39.8638C3.29637 39.8129 3.51169 39.5691 3.64872 39.3443C3.69622 39.2666 3.79747 39.2426 3.87434 39.2897C3.95184 39.3369 3.97637 39.4379 3.92903 39.5155C3.82965 39.6786 3.48231 40.2018 3.12544 40.2018Z" fill="#241726"/>
<path d="M6.27995 42.5789C6.23277 42.5789 6.18605 42.5588 6.15355 42.5195C6.09558 42.45 6.10511 42.3463 6.1748 42.2883C6.50105 42.0169 7.00542 41.4625 6.97105 41.1305C6.96792 41.1 6.96136 41.0897 6.96136 41.0897C6.87589 41.065 6.50667 41.2831 6.20855 41.5416C6.15417 41.5885 6.07574 41.5949 6.01511 41.5574C5.95402 41.5202 5.92433 41.4474 5.94152 41.3777C6.05324 40.928 6.10683 40.4608 6.07027 40.2969C5.86339 40.4377 5.36167 41.101 4.97761 41.6991C4.92839 41.775 4.82683 41.7975 4.75074 41.7485C4.67449 41.6994 4.6523 41.5977 4.7012 41.5214C5.78824 39.828 6.08355 39.9239 6.18136 39.9563C6.41011 40.0303 6.46855 40.3856 6.35636 41.0144C6.60074 40.8514 6.89105 40.7116 7.09136 40.7911C7.15933 40.818 7.27667 40.8935 7.29792 41.0964C7.3612 41.7103 6.48511 42.4575 6.3848 42.541C6.35417 42.5664 6.31683 42.5789 6.27995 42.5789Z" fill="#241726"/>
<path d="M4.74371 44.2626C4.26043 44.2626 3.65418 44.1712 3.11215 43.8193C2.43949 43.3827 2.01934 42.6448 1.8634 41.6256C1.84965 41.536 1.91121 41.4524 2.0009 41.4385C2.09137 41.4245 2.17434 41.4863 2.18809 41.5762C2.32918 42.4976 2.69949 43.1593 3.28903 43.5426C4.26793 44.1795 5.54465 43.843 5.55731 43.8396C5.64496 43.8165 5.73512 43.8676 5.75887 43.9548C5.78278 44.0423 5.73153 44.1324 5.64403 44.1565C5.61449 44.1645 5.24512 44.2626 4.74371 44.2626Z" fill="#241726"/>
<path d="M10.175 17.7531C10.175 17.7531 11.1852 14.7565 11.6185 15.066C12.0519 15.3754 11.943 15.8957 11.943 15.8957C11.943 15.8957 13.2032 14.2676 13.8863 14.6657C14.5693 15.0639 13.9021 15.872 13.9021 15.872C13.9021 15.872 16.0169 14.3715 16.3505 15.1576C16.6841 15.9437 14.7772 17.5496 14.7772 17.5496C14.7772 17.5496 15.8777 16.8685 16.1061 17.7912C16.3346 18.7139 14.4871 18.9365 14.3722 18.9359C14.2574 18.9354 14.9758 18.9034 14.7603 19.5145C14.5449 20.1254 8.7316 20.4403 10.175 17.7531Z" fill="#51AEA5"/>
<path d="M7.50706 21.0492C7.50706 21.0492 4.67597 22.4579 4.58753 21.9327C4.4991 21.4076 4.94347 21.116 4.94347 21.116C4.94347 21.116 2.90144 21.3792 2.69878 20.6149C2.49613 19.8507 3.53925 19.7496 3.53925 19.7496C3.53925 19.7496 0.982222 19.319 1.30097 18.5267C1.61972 17.7345 4.1041 17.9437 4.1041 17.9437C4.1041 17.9437 2.84394 17.649 3.33363 16.8343C3.82332 16.0196 5.28878 17.1665 5.36972 17.2479C5.45066 17.3293 4.91925 16.8446 5.50331 16.5642C6.08753 16.2837 10.4264 20.1656 7.50706 21.0492Z" fill="#51AEA5"/>
<path d="M10.8944 20.5759C10.8944 20.5759 13.5311 22.3214 13.1208 22.6609C12.7105 23.0003 12.2356 22.7616 12.2356 22.7616C12.2356 22.7616 13.4856 24.3975 12.9256 24.9555C12.3655 25.5134 11.7558 24.6611 11.7558 24.6611C11.7558 24.6611 12.663 27.0902 11.8177 27.2109C10.9724 27.3316 9.90971 25.0763 9.90971 25.0763C9.90971 25.0763 10.2855 26.3147 9.33502 26.2986C8.38456 26.2825 8.64377 24.4398 8.67377 24.3289C8.70377 24.2181 8.55018 24.9206 8.01487 24.5555C7.47956 24.1903 8.66784 18.4911 10.8944 20.5759Z" fill="#51AEA5"/>
<path d="M11.6078 18.7081C11.3011 18.6439 10.9966 18.6592 10.7141 18.7378C10.8386 17.7669 10.1986 16.848 9.22409 16.6441C8.19987 16.4297 7.19565 17.0864 6.98143 18.1106C6.85268 18.7263 7.04003 19.3335 7.43128 19.7674C6.74878 19.938 6.18784 20.4814 6.03409 21.2163C5.81972 22.2405 6.47643 23.2447 7.50065 23.4589C8.52503 23.6733 9.52909 23.0166 9.74331 21.9924C9.75784 21.9231 9.76753 21.8541 9.77425 21.7853C10.0375 22.097 10.4014 22.3274 10.8316 22.4175C11.856 22.6319 12.86 21.9752 13.0742 20.951C13.2888 19.9266 12.6322 18.9225 11.6078 18.7081ZM9.3419 20.3236C9.3394 20.343 9.33612 20.3624 9.3344 20.3817C9.32112 20.3661 9.30737 20.3508 9.29378 20.3356C9.30972 20.3316 9.32597 20.3281 9.3419 20.3236Z" fill="#D45A41"/>
<path d="M6.90878 19.8187C6.87691 19.8187 6.84456 19.8095 6.81628 19.7901C5.67831 19.0128 3.5444 19.1086 3.52284 19.1082C3.42956 19.1182 3.35503 19.0428 3.35081 18.9525C3.34644 18.862 3.41628 18.785 3.50691 18.7806C3.59862 18.7757 5.7719 18.6792 7.00175 19.5189C7.07659 19.5701 7.09581 19.6722 7.04472 19.7473C7.01269 19.7937 6.96112 19.8187 6.90878 19.8187Z" fill="#241726"/>
<path d="M11.6077 18.8721C11.5307 18.8721 11.4619 18.8175 11.4468 18.7392C11.4294 18.65 11.4875 18.5638 11.5764 18.5464C12.2753 18.4105 13.4855 16.8803 13.893 16.3021C13.9452 16.2283 14.0472 16.21 14.1219 16.2622C14.196 16.3144 14.2138 16.4171 14.1616 16.4911C14.0039 16.715 12.5939 18.683 11.6394 18.8689C11.6286 18.8711 11.6182 18.8721 11.6077 18.8721Z" fill="#241726"/>
<path d="M10.6697 25.2853C10.5802 25.2853 10.5069 25.2134 10.5055 25.1236C10.496 24.5517 10.358 23.0008 9.84003 22.6947C9.7619 22.6484 9.73612 22.5478 9.78206 22.4698C9.82831 22.3915 9.92878 22.3662 10.0071 22.4117C10.7752 22.8656 10.8302 24.889 10.8339 25.1183C10.8353 25.2087 10.763 25.2834 10.6724 25.285C10.6714 25.2853 10.6705 25.2853 10.6697 25.2853Z" fill="#241726"/>
<path d="M10.7477 18.7329C10.6627 18.7015 10.5685 18.7448 10.5366 18.8301C10.5328 18.8401 10.1474 19.8551 9.33378 20.0135C9.3055 20.0191 9.28207 20.0332 9.2616 20.0505C9.2205 20.022 9.18035 19.9927 9.13441 19.9668C8.49347 19.6043 7.9505 19.4838 7.52035 19.6109C7.14785 19.7205 7.00566 19.9743 6.9905 20.0027C6.94878 20.0823 6.97925 20.1794 7.05816 20.2221C7.13675 20.2654 7.23613 20.2355 7.28035 20.1573C7.28425 20.1505 7.37597 19.9918 7.62394 19.9224C7.85832 19.8582 8.28207 19.8615 8.97269 20.2527C9.84613 20.7466 9.59457 21.9066 9.58347 21.9557C9.56347 22.0438 9.61863 22.1321 9.70691 22.1523C9.71925 22.1548 9.7316 22.1565 9.74363 22.1565C9.81847 22.1565 9.88597 22.1052 9.90347 22.0291C9.91488 21.9795 10.1322 20.9785 9.53988 20.2985C10.4341 20.0285 10.8278 18.9898 10.8449 18.9434C10.8761 18.8585 10.8327 18.7643 10.7477 18.7329Z" fill="#241726"/>
<path d="M10.0721 18.256C10.003 18.256 9.93863 18.2121 9.91597 18.1427C9.69769 17.4769 8.93035 17.533 8.92316 17.5327C8.83113 17.5413 8.75347 17.473 8.74597 17.3825C8.73863 17.2921 8.80581 17.2128 8.89628 17.2055C9.25269 17.1728 9.98957 17.313 10.2282 18.0407C10.2564 18.1266 10.2094 18.2192 10.1233 18.2478C10.1063 18.2533 10.0889 18.256 10.0721 18.256Z" fill="#FBFCFF"/>
<path d="M12.5519 20.6822C12.48 20.6822 12.4139 20.6344 12.3938 20.5619C12.2574 20.0693 11.54 19.7679 11.5328 19.7646C11.4491 19.7302 11.4092 19.6341 11.4436 19.5504C11.4782 19.4666 11.5739 19.4269 11.6577 19.4608C11.6932 19.4755 12.5307 19.8258 12.7103 20.474C12.7346 20.5615 12.6833 20.6519 12.5958 20.676C12.5813 20.6802 12.5664 20.6822 12.5519 20.6822Z" fill="#FBFCFF"/>
<path d="M9.09222 21.644C9.00238 21.644 8.92909 21.5718 8.928 21.4816C8.92675 21.3726 8.88753 21.2832 8.80863 21.2083C8.55722 20.9704 7.9755 20.938 7.77144 20.9488C7.68441 20.9521 7.60441 20.8824 7.60034 20.7916C7.59644 20.7012 7.66675 20.6246 7.75722 20.6204C7.79316 20.6204 8.62941 20.5868 9.03409 20.9693C9.17925 21.1066 9.25394 21.2776 9.25659 21.4776C9.25769 21.568 9.18503 21.6424 9.09441 21.6437C9.09363 21.644 9.09284 21.644 9.09222 21.644Z" fill="#FBFCFF"/>
<path d="M71.0682 56.2255C71.0682 56.2255 68.3132 54.6733 68.6981 54.3053C69.0829 53.9374 69.5737 54.1416 69.5737 54.1416C69.5737 54.1416 68.2096 52.5994 68.7284 52.0027C69.247 51.4061 69.9164 52.2125 69.9164 52.2125C69.9164 52.2125 68.8374 49.8547 69.672 49.6738C70.5065 49.4928 71.7279 51.6663 71.7279 51.6663C71.7279 51.6663 71.2645 50.458 72.2135 50.406C73.1626 50.3539 73.0362 52.2105 73.0142 52.3232C72.9921 52.4358 73.0951 51.7241 73.6551 52.0499C74.2153 52.3758 73.4384 58.1455 71.0682 56.2255Z" fill="#51AEA5"/>
<path d="M73.8076 59.4625C73.8076 59.4625 74.6626 62.5069 74.1303 62.4956C73.5979 62.4844 73.3945 61.9933 73.3945 61.9933C73.3945 61.9933 73.2715 64.0484 72.4829 64.1049C71.6943 64.1611 71.7898 63.1175 71.7898 63.1175C71.7898 63.1175 70.889 65.5491 70.1703 65.0878C69.4515 64.6267 70.1212 62.2252 70.1212 62.2252C70.1212 62.2252 69.5964 63.4081 68.8875 62.7749C68.1786 62.1416 69.579 60.9161 69.6742 60.8519C69.7693 60.7875 69.1939 61.2191 69.0275 60.5928C68.8609 59.9666 73.485 56.4292 73.8076 59.4625Z" fill="#51AEA5"/>
<path d="M73.9759 56.0462C73.9759 56.0462 76.1832 53.7819 76.4401 54.2484C76.697 54.7148 76.3735 55.1368 76.3735 55.1368C76.3735 55.1368 78.2143 54.2144 78.6578 54.8688C79.1012 55.5234 78.1499 55.9632 78.1499 55.9632C78.1499 55.9632 80.7057 55.5257 80.6663 56.3788C80.627 57.2319 78.2128 57.8543 78.2128 57.8543C78.2128 57.8543 79.4995 57.7165 79.3062 58.6471C79.1128 59.5777 77.351 58.979 77.2478 58.9288C77.1445 58.8787 77.806 59.1609 77.3473 59.6184C76.8887 60.076 71.5117 57.844 73.9759 56.0462Z" fill="#51AEA5"/>
<path d="M75.1522 57.4414C75.0868 57.4142 75.0209 57.3917 74.9545 57.3724C75.3098 57.1721 75.6042 56.8575 75.7731 56.4516C76.175 55.4853 75.7175 54.3763 74.7514 53.9744C73.7851 53.5725 72.6761 54.03 72.2742 54.9961C72.1539 55.2855 72.112 55.5875 72.1364 55.8797C71.2057 55.576 70.1834 56.033 69.8011 56.9524C69.3992 57.9186 69.8567 59.0277 70.8228 59.4296C71.4036 59.6711 72.035 59.6003 72.5343 59.2971C72.5745 59.9994 73.0036 60.6521 73.6967 60.9403C74.6629 61.3422 75.772 60.8847 76.1739 59.9185C76.5759 58.9524 76.1184 57.8433 75.1522 57.4414ZM73.4378 57.5242C73.4564 57.5303 73.4748 57.5371 73.4934 57.5425C73.4756 57.5525 73.4579 57.5631 73.4404 57.5739C73.4397 57.5574 73.4392 57.5407 73.4378 57.5242Z" fill="#D45A41"/>
<path d="M70.8307 63.0995C70.8232 63.0995 70.8154 63.0989 70.8078 63.098C70.7179 63.0855 70.6554 63.0023 70.6679 62.9127C70.6806 62.8216 70.9912 60.6686 72.0463 59.6172C72.1107 59.5533 72.2146 59.5533 72.2785 59.6178C72.3428 59.6819 72.3424 59.7859 72.2782 59.85C71.3017 60.8228 70.9962 62.937 70.9931 62.9581C70.9817 63.0402 70.9113 63.0995 70.8307 63.0995Z" fill="#241726"/>
<path d="M72.274 55.1604C72.1836 55.1604 72.1101 55.0873 72.1098 54.9968C72.1067 54.2845 70.8296 52.8098 70.3376 52.3018C70.2746 52.2366 70.2762 52.1327 70.3415 52.0696C70.407 52.0068 70.5109 52.008 70.5737 52.0735C70.764 52.2701 72.434 54.0229 72.4382 54.9957C72.4386 55.0865 72.3654 55.1602 72.2746 55.1605L72.274 55.1604Z" fill="#241726"/>
<path d="M75.7367 57.5335C75.6981 57.5335 75.6593 57.52 75.6282 57.4924C75.5601 57.4327 75.5535 57.3288 75.6134 57.2608C76.2029 56.5911 78.2013 56.9153 78.427 56.9546C78.5163 56.9699 78.576 57.0549 78.5607 57.1441C78.5453 57.2336 78.4609 57.2961 78.3709 57.2778C77.8076 57.1806 76.2573 57.0261 75.8601 57.4777C75.8274 57.5146 75.7823 57.5335 75.7367 57.5335Z" fill="#241726"/>
<path d="M75.2182 57.2913C75.1715 57.2707 74.2285 56.87 73.4501 57.3252C73.3523 56.3964 72.4051 55.8157 72.3628 55.79C72.2848 55.7438 72.1843 55.7678 72.1376 55.8461C72.0909 55.9238 72.1159 56.0247 72.1935 56.0716C72.2029 56.0771 73.1281 56.6453 73.1317 57.4741C73.1318 57.503 73.1414 57.5286 73.1545 57.5522C73.1187 57.5874 73.0824 57.6213 73.0482 57.6617C72.572 58.2239 72.3529 58.7349 72.3968 59.1807C72.435 59.5671 72.6578 59.7541 72.6829 59.7742C72.7129 59.798 72.7485 59.8096 72.7839 59.8096C72.8315 59.8096 72.8787 59.7886 72.9112 59.7489C72.9681 59.6794 72.9578 59.5764 72.889 59.5186C72.8831 59.5135 72.7442 59.3936 72.7228 59.1369C72.7025 58.895 72.7859 58.4794 73.2987 57.8739C73.9473 57.1077 75.0403 57.5717 75.0862 57.5921C75.1703 57.6286 75.2664 57.5902 75.3023 57.5074C75.3389 57.4244 75.3012 57.3278 75.2182 57.2913Z" fill="#241726"/>
<path d="M70.4551 57.5606C70.4493 57.5606 70.4434 57.5603 70.4376 57.5597C70.3473 57.55 70.2821 57.4692 70.2917 57.3791C70.3295 57.0234 70.6017 56.3252 71.3606 56.2267C71.4503 56.2139 71.5329 56.2784 71.5445 56.3684C71.5562 56.4586 71.4928 56.5406 71.4029 56.5525C70.7082 56.6427 70.6189 57.4059 70.6181 57.4136C70.6092 57.4981 70.5379 57.5606 70.4551 57.5606Z" fill="#FBFCFF"/>
<path d="M73.1603 55.3416C73.1295 55.3416 73.0984 55.333 73.0706 55.3147C72.9948 55.2654 72.9734 55.1637 73.0228 55.088C73.0437 55.0557 73.5443 54.2983 74.2148 54.2432C74.3062 54.2362 74.3845 54.3029 74.392 54.3933C74.3993 54.4838 74.3321 54.563 74.2417 54.5704C73.7321 54.6124 73.3021 55.2608 73.2978 55.2672C73.2665 55.3154 73.2139 55.3416 73.1603 55.3416Z" fill="#FBFCFF"/>
<path d="M73.5963 59.3245C73.5885 59.3245 73.5804 59.3238 73.5724 59.3226C73.4828 59.3098 73.4206 59.2263 73.4337 59.1365C73.4387 59.1015 73.5637 58.273 74.0149 57.9473C74.1767 57.8309 74.3585 57.7888 74.5554 57.8241C74.6448 57.8399 74.7042 57.9252 74.6884 58.0143C74.6724 58.1038 74.5887 58.1618 74.4981 58.1474C74.3899 58.1282 74.2954 58.1499 74.2076 58.2135C73.9265 58.4159 73.7882 58.9826 73.7585 59.184C73.7467 59.2657 73.6765 59.3245 73.5963 59.3245Z" fill="#FBFCFF"/>
<path d="M27.5178 72.1554C27.4725 72.1554 27.4273 72.1368 27.395 72.1003C27.3747 72.0775 26.8984 71.5621 26.1514 71.9162C26.0697 71.9543 25.9717 71.9201 25.9328 71.8379C25.8939 71.7562 25.9288 71.6581 26.0109 71.6192C26.792 71.2496 27.4188 71.6298 27.6413 71.8828C27.7013 71.951 27.6945 72.0546 27.6264 72.1146C27.5948 72.142 27.5563 72.1554 27.5178 72.1554Z" fill="#241726"/>
<path d="M26.2223 73.1232C26.177 73.1232 26.1319 73.1046 26.0995 73.068C26.0792 73.0449 25.6031 72.5293 24.8559 72.884C24.7744 72.9221 24.6759 72.8879 24.6373 72.8057C24.5984 72.724 24.6333 72.6259 24.7155 72.5869C25.4964 72.2174 26.1233 72.5976 26.3456 72.8505C26.4056 72.9188 26.3989 73.0224 26.3308 73.0824C26.2995 73.1098 26.2608 73.1232 26.2223 73.1232Z" fill="#241726"/>
<path d="M24.0452 72.9377C23.9999 72.9377 23.9547 72.9191 23.9223 72.8825C23.9022 72.8597 23.4272 72.3433 22.6788 72.6982C22.597 72.7366 22.4991 72.7017 22.46 72.6199C22.4213 72.5382 22.4563 72.44 22.5383 72.4011C23.3191 72.031 23.9463 72.4121 24.1686 72.665C24.2286 72.7333 24.2219 72.8369 24.1538 72.8969C24.1224 72.9242 24.0836 72.9377 24.0452 72.9377Z" fill="#241726"/>
<path d="M21.8519 72.0547C21.8038 72.0547 21.7561 72.0339 21.7238 71.9934C21.667 71.9228 21.678 71.8192 21.7488 71.7625C22.4314 71.2134 23.1183 71.4414 23.3858 71.6391C23.4589 71.693 23.4745 71.7956 23.4206 71.8688C23.3672 71.9413 23.2649 71.9574 23.1916 71.9041C23.1666 71.8858 22.6052 71.4949 21.9547 72.0186C21.9244 72.0428 21.888 72.0547 21.8519 72.0547Z" fill="#241726"/>
<path d="M24.2236 71.8744C24.173 71.8744 24.123 71.8509 24.0908 71.807C24.0374 71.7339 24.0533 71.6309 24.1266 71.5777C24.8316 71.0619 25.5089 71.3217 25.7688 71.5311C25.8394 71.5881 25.8503 71.6914 25.7935 71.762C25.737 71.8325 25.6338 71.8434 25.5633 71.7873C25.5399 71.7691 24.9931 71.3511 24.3202 71.8425C24.2911 71.8642 24.2572 71.8744 24.2236 71.8744Z" fill="#241726"/>
<path d="M21.365 73.8065C21.3144 73.8065 21.2645 73.7831 21.2322 73.7392C21.1787 73.666 21.1947 73.5631 21.268 73.5098C21.9731 72.994 22.6503 73.2538 22.9102 73.4632C22.9808 73.5203 22.9917 73.6235 22.9348 73.6942C22.8784 73.7648 22.7755 73.7756 22.7047 73.7195C22.6816 73.7018 22.1345 73.2829 21.4616 73.7746C21.4325 73.7964 21.3986 73.8065 21.365 73.8065Z" fill="#241726"/>
<path d="M19.9716 73.0504C19.9295 73.0504 19.8874 73.0343 19.8553 73.0023C19.7913 72.9381 19.7913 72.8338 19.8556 72.7701C20.4794 72.147 21.1834 72.2996 21.4678 72.467C21.5461 72.5128 21.572 72.6135 21.5259 72.6918C21.4803 72.7695 21.3798 72.796 21.3017 72.7503C21.2741 72.7342 20.6824 72.4093 20.0875 73.0023C20.0556 73.0345 20.0136 73.0504 19.9716 73.0504Z" fill="#241726"/>
<path d="M58.0698 71.556C58.0244 71.556 57.9793 71.5374 57.9469 71.5008C57.9268 71.478 57.4508 70.962 56.7033 71.3167C56.6213 71.3549 56.5235 71.3206 56.4848 71.2385C56.4459 71.1567 56.4807 71.0585 56.5629 71.0197C57.3435 70.6499 57.9708 71.0303 58.1932 71.2833C58.2532 71.3516 58.2465 71.4552 58.1783 71.5152C58.1469 71.5425 58.1083 71.556 58.0698 71.556Z" fill="#241726"/>
<path d="M56.7744 72.5236C56.7291 72.5236 56.684 72.505 56.6516 72.4684C56.6313 72.4456 56.1551 71.9297 55.408 72.2844C55.3263 72.3225 55.2283 72.2883 55.1894 72.2061C55.1505 72.1244 55.1854 72.0261 55.2676 71.9873C56.0482 71.6178 56.6754 71.998 56.8979 72.2509C56.9579 72.3192 56.9512 72.4228 56.8829 72.4828C56.8515 72.51 56.8129 72.5236 56.7744 72.5236Z" fill="#241726"/>
<path d="M54.5971 72.338C54.5518 72.338 54.5066 72.3194 54.4743 72.2829C54.454 72.2601 53.9784 71.7441 53.231 72.0988C53.1488 72.1369 53.0513 72.1027 53.0123 72.0205C52.9734 71.9388 53.0082 71.8405 53.0902 71.8018C53.8712 71.4323 54.498 71.8124 54.7205 72.0654C54.7805 72.1337 54.7738 72.2373 54.7055 72.2973C54.6743 72.3246 54.6357 72.338 54.5971 72.338Z" fill="#241726"/>
<path d="M52.4038 71.455C52.3557 71.455 52.308 71.4342 52.2757 71.3937C52.219 71.3231 52.2301 71.2195 52.3007 71.1628C52.9829 70.614 53.6704 70.8417 53.9379 71.0393C54.011 71.0932 54.0265 71.1959 53.9727 71.269C53.9194 71.3418 53.8166 71.3575 53.7438 71.3043C53.7185 71.2864 53.1574 70.8948 52.5066 71.4189C52.4763 71.4431 52.4399 71.455 52.4038 71.455Z" fill="#241726"/>
<path d="M54.7757 71.2748C54.7251 71.2748 54.6752 71.2513 54.6429 71.2074C54.5895 71.1343 54.6054 71.0313 54.6787 70.978C55.3838 70.4623 56.0609 70.7221 56.3209 70.9315C56.3915 70.9885 56.4024 71.0918 56.3455 71.1624C56.289 71.233 56.186 71.2438 56.1154 71.1877C56.0924 71.1701 55.5455 70.7512 54.8723 71.2429C54.8432 71.2645 54.8091 71.2748 54.7757 71.2748Z" fill="#241726"/>
<path d="M51.9173 73.2069C51.8667 73.2069 51.8168 73.1835 51.7845 73.1396C51.731 73.0664 51.747 72.9635 51.8202 72.9102C52.5252 72.3944 53.2029 72.6542 53.4623 72.8636C53.5331 72.9206 53.544 73.0239 53.4871 73.0946C53.4306 73.1649 53.3276 73.1763 53.257 73.1199C53.2338 73.1016 52.6874 72.6833 52.0138 73.175C51.9848 73.1966 51.9507 73.2069 51.9173 73.2069Z" fill="#241726"/>
<path d="M50.5237 72.451C50.4816 72.451 50.4394 72.4349 50.4074 72.4029C50.3433 72.3388 50.3434 72.2344 50.4077 72.1707C51.0318 71.5469 51.7354 71.7002 52.0199 71.8676C52.098 71.9134 52.124 72.0141 52.078 72.0924C52.0321 72.1701 51.9315 72.196 51.8541 72.1512C51.829 72.1368 51.2363 71.808 50.6396 72.4029C50.6076 72.4349 50.5657 72.451 50.5237 72.451Z" fill="#241726"/>
<path d="M6.33694 67.4599C6.20803 67.4599 6.07866 67.4502 5.95194 67.4313C5.86225 67.4182 5.80037 67.3344 5.81366 67.2449C5.82709 67.155 5.91069 67.0938 6.00037 67.1066C6.20131 67.1361 6.40881 67.1383 6.61194 67.1152C6.70225 67.1058 6.7835 67.1694 6.79381 67.2596C6.80428 67.3497 6.73959 67.4311 6.64944 67.4418C6.54569 67.4538 6.44147 67.4599 6.33694 67.4599ZM7.26866 67.293C7.201 67.293 7.13741 67.251 7.11381 67.1833C7.08366 67.0977 7.1285 67.0041 7.21413 66.9739C7.40272 66.9075 7.59366 66.8191 7.78194 66.711C7.86069 66.6661 7.961 66.6927 8.00616 66.7716C8.05131 66.8502 8.02413 66.9505 7.94553 66.9958C7.73991 67.1138 7.53053 67.2107 7.32319 67.2838C7.30522 67.2902 7.28678 67.293 7.26866 67.293ZM5.34694 67.2524C5.32522 67.2524 5.30287 67.2479 5.28131 67.2386C5.07569 67.1488 4.87444 67.0314 4.68334 66.8894C4.61053 66.8352 4.59553 66.7325 4.64944 66.6597C4.70366 66.5866 4.80647 66.5719 4.87928 66.6257C5.05037 66.7527 5.22975 66.8579 5.41288 66.9377C5.496 66.9739 5.53397 67.0708 5.49756 67.1538C5.47069 67.2155 5.41037 67.2524 5.34694 67.2524ZM8.40584 66.6478C8.35741 66.6478 8.30959 66.6268 8.27709 66.586C8.22069 66.5147 8.23256 66.4114 8.3035 66.355C8.46569 66.2261 8.62381 66.0824 8.7735 65.9278C8.83663 65.8624 8.94053 65.8611 9.00569 65.9239C9.071 65.9871 9.07256 66.091 9.00959 66.1561C8.84991 66.321 8.68116 66.4743 8.50787 66.6122C8.47772 66.6363 8.44162 66.6478 8.40584 66.6478ZM4.29319 66.4836C4.24944 66.4836 4.20584 66.4663 4.17334 66.4316C4.02584 66.2744 3.88162 66.0977 3.74491 65.9066C3.69209 65.8328 3.70912 65.7302 3.78287 65.6772C3.85694 65.6246 3.95928 65.6416 4.01209 65.7153C4.14037 65.895 4.27522 66.0605 4.41287 66.2071C4.47506 66.2732 4.47178 66.3771 4.40569 66.4389C4.37397 66.4688 4.3335 66.4836 4.29319 66.4836ZM9.31881 65.7071C9.28428 65.7071 9.24959 65.6961 9.22006 65.6736C9.14756 65.6191 9.13334 65.5161 9.18803 65.4436C9.31787 65.2718 9.436 65.0933 9.53866 64.9135C9.58334 64.8349 9.68366 64.8077 9.76272 64.8522C9.84147 64.8974 9.86881 64.9975 9.82381 65.0764C9.71413 65.2685 9.58834 65.4588 9.45006 65.6419C9.41772 65.6847 9.3685 65.7071 9.31881 65.7071ZM3.52662 65.4213C3.46912 65.4213 3.41303 65.3908 3.38303 65.3369C3.27022 65.1349 3.17459 64.9261 3.09834 64.7169C3.06725 64.6316 3.11116 64.5377 3.19647 64.5066C3.28162 64.4755 3.376 64.5194 3.40694 64.6047C3.47709 64.7975 3.56569 64.9902 3.66975 65.1772C3.71397 65.2564 3.68553 65.3564 3.60631 65.4005C3.58116 65.4146 3.55366 65.4213 3.52662 65.4213ZM3.08272 64.1916C3.00428 64.1916 2.93506 64.1355 2.921 64.0557C2.88412 63.843 2.86537 63.6269 2.86537 63.4122L3.02991 63.3735L3.19397 63.3939C3.19381 63.6079 3.211 63.8055 3.24459 63.9991C3.26022 64.0886 3.20037 64.1736 3.11084 64.1889C3.10147 64.191 3.09194 64.1916 3.08272 64.1916ZM3.09616 62.8853C3.08584 62.8853 3.07569 62.8844 3.06522 62.8825C2.976 62.8655 2.91772 62.7793 2.93475 62.6903C2.97694 62.4703 3.03881 62.2494 3.11912 62.0325C3.15069 61.9475 3.24444 61.9039 3.33022 61.9357C3.41522 61.9671 3.45866 62.0618 3.42709 62.1468C3.35319 62.3463 3.296 62.5499 3.25741 62.7519C3.24225 62.8305 3.1735 62.8853 3.09616 62.8853ZM3.54709 61.6577C3.52006 61.6577 3.49287 61.651 3.46772 61.6372C3.38834 61.5933 3.35959 61.4932 3.40366 61.4139C3.51194 61.2186 3.63616 61.0272 3.77303 60.8447C3.82725 60.7722 3.93053 60.7572 4.00287 60.8118C4.07553 60.8663 4.09022 60.9693 4.03569 61.0418C3.90803 61.2124 3.79194 61.391 3.69116 61.5732C3.661 61.6272 3.60475 61.6577 3.54709 61.6577ZM6.80694 61.3238C6.80366 61.3238 6.80037 61.3238 6.79694 61.3235C6.58084 61.3107 6.35272 61.2757 6.11928 61.2196C6.03131 61.1985 5.97694 61.1096 5.99803 61.0213C6.01912 60.9335 6.10663 60.8796 6.19631 60.9C6.41084 60.9518 6.61959 60.9838 6.81663 60.9957C6.90709 61.0011 6.97616 61.0788 6.97069 61.1693C6.96553 61.2564 6.89319 61.3238 6.80694 61.3238ZM7.45975 61.2791C7.38506 61.2791 7.31741 61.2278 7.29991 61.1518C7.27959 61.0636 7.33475 60.9753 7.42303 60.9549C7.63787 60.9052 7.7985 60.8163 7.88725 60.6977C7.94131 60.6249 8.04444 60.6099 8.11709 60.6643C8.18975 60.7185 8.20459 60.8214 8.15038 60.8939C8.01256 61.0786 7.79272 61.2066 7.49694 61.275C7.48444 61.2778 7.47194 61.2791 7.45975 61.2791ZM5.53225 61.0239C5.51194 61.0239 5.491 61.02 5.471 61.0121C5.25975 60.9271 5.05413 60.828 4.85959 60.7171C4.78069 60.6722 4.75334 60.5718 4.79819 60.4928C4.84287 60.4139 4.94319 60.3868 5.02225 60.4316C5.20413 60.5352 5.39616 60.6282 5.59366 60.7074C5.67787 60.741 5.7185 60.8369 5.68475 60.921C5.65881 60.985 5.59709 61.0239 5.53225 61.0239ZM4.331 60.6093C4.28975 60.6093 4.2485 60.5938 4.21647 60.5627C4.15147 60.4996 4.15006 60.3957 4.21319 60.3305C4.22334 60.3202 4.23334 60.31 4.2435 60.2997C4.08084 60.1699 3.9285 60.0291 3.78944 59.8808C3.72741 59.8147 3.73069 59.7108 3.79678 59.6489C3.86334 59.5868 3.96694 59.5899 4.02897 59.6563C4.16741 59.8038 4.32053 59.9433 4.48428 60.0713C4.56022 60.0039 4.63803 59.9388 4.71741 59.8766C4.78881 59.8202 4.89209 59.833 4.94803 59.9043C5.00412 59.9755 4.99178 60.0788 4.92037 60.1346C4.75475 60.2647 4.596 60.4078 4.44834 60.5596C4.41647 60.5925 4.37381 60.6093 4.331 60.6093ZM8.10194 60.333C8.02991 60.333 7.96381 60.2852 7.94381 60.2124C7.92194 60.1338 7.8885 60.0491 7.84397 59.961C7.79537 59.8647 7.73741 59.7788 7.67131 59.7057C7.61053 59.6383 7.61584 59.5347 7.68319 59.4738C7.75006 59.4135 7.85428 59.4183 7.91506 59.4857C8.00069 59.5807 8.07553 59.6907 8.13709 59.8128C8.19147 59.9207 8.23287 60.0255 8.26038 60.1252C8.28459 60.2124 8.23334 60.3028 8.14584 60.3272C8.13131 60.3311 8.11662 60.333 8.10194 60.333ZM5.36241 59.801C5.30569 59.801 5.25053 59.7714 5.22022 59.7189C5.17475 59.6407 5.20162 59.54 5.28006 59.4947C5.48631 59.3753 5.69459 59.2769 5.89959 59.2022C5.98491 59.1718 6.07881 59.215 6.11022 59.3C6.14131 59.3853 6.09741 59.4796 6.01225 59.5107C5.82522 59.5789 5.63444 59.6691 5.44475 59.7788C5.4185 59.7939 5.39022 59.801 5.36241 59.801ZM3.50334 59.418C3.44991 59.418 3.39756 59.3921 3.36584 59.3439C3.23959 59.1518 3.13147 58.9478 3.04397 58.738C3.00897 58.6543 3.04866 58.5582 3.13241 58.5232C3.216 58.4894 3.31241 58.5277 3.34709 58.6116C3.42678 58.8027 3.52537 58.9885 3.64037 59.1636C3.69006 59.2393 3.66912 59.3413 3.59319 59.391C3.56553 59.4094 3.53428 59.418 3.50334 59.418ZM7.2435 59.4168C7.22803 59.4168 7.21256 59.4146 7.19694 59.41C7.02459 59.3591 6.82366 59.3436 6.61084 59.3668C6.51897 59.3757 6.43959 59.3116 6.42975 59.2211C6.41991 59.131 6.48506 59.0502 6.57522 59.0402C6.83303 59.0119 7.07616 59.0319 7.28991 59.095C7.37694 59.1207 7.42647 59.2121 7.40084 59.2989C7.37975 59.3705 7.31428 59.4168 7.2435 59.4168ZM3.00178 58.2133C2.92569 58.2133 2.85741 58.16 2.84131 58.0829C2.79522 57.8629 2.7685 57.6341 2.76178 57.4028C2.75928 57.3121 2.83053 57.2364 2.92116 57.2338C3.01178 57.2305 3.08741 57.3027 3.09022 57.3932C3.09631 57.6052 3.12069 57.8146 3.16272 58.0153C3.18131 58.1043 3.12444 58.1911 3.03569 58.2097C3.02428 58.2124 3.01287 58.2133 3.00178 58.2133ZM2.93553 56.9055C2.93241 56.9055 2.92944 56.9055 2.92631 56.9052C2.83569 56.9003 2.76631 56.8229 2.77147 56.7324C2.78412 56.5024 2.80741 56.2772 2.84053 56.0633C2.85459 55.9741 2.9385 55.9128 3.02803 55.9264C3.11772 55.9405 3.17912 56.0243 3.16522 56.1141C3.13366 56.3171 3.11147 56.5314 3.09928 56.7503C3.09444 56.8378 3.02209 56.9055 2.93553 56.9055ZM3.14147 55.6121C3.12662 55.6121 3.11147 55.6102 3.09662 55.606C3.00944 55.5813 2.95866 55.4905 2.98334 55.4033C3.04709 55.1775 3.12537 54.9624 3.216 54.7635C3.25366 54.6807 3.35147 54.6449 3.4335 54.6821C3.51616 54.7196 3.55256 54.8171 3.51491 54.8996C3.43116 55.0836 3.3585 55.2832 3.29928 55.4925C3.27897 55.5649 3.21303 55.6121 3.14147 55.6121ZM5.06928 54.5247C5.06319 54.5247 5.05709 54.5244 5.05084 54.5238C4.81944 54.4978 4.59194 54.4443 4.37459 54.3641C4.28944 54.333 4.246 54.2383 4.27725 54.1533C4.30881 54.0683 4.40381 54.0247 4.48819 54.0561C4.68069 54.1271 4.88225 54.1744 5.08741 54.1972C5.17756 54.2075 5.24241 54.2886 5.23241 54.3788C5.22287 54.4625 5.15178 54.5247 5.06928 54.5247ZM5.72413 54.5141C5.64428 54.5141 5.57428 54.4557 5.56194 54.3746C5.54834 54.2847 5.60991 54.201 5.69959 54.1875C5.92069 54.1539 6.11647 54.0872 6.251 53.9989C6.32662 53.9496 6.42866 53.971 6.47819 54.0468C6.52787 54.1224 6.50663 54.2244 6.43053 54.2741C6.25506 54.3886 6.01928 54.471 5.74881 54.5121C5.74069 54.5135 5.73241 54.5141 5.72413 54.5141ZM3.68991 54.426C3.65725 54.426 3.62397 54.4163 3.59522 54.3958C3.52116 54.3435 3.5035 54.2408 3.556 54.1668C3.59756 54.108 3.64084 54.051 3.68537 53.9961C3.52272 53.8779 3.371 53.7414 3.23366 53.5897C3.17272 53.5224 3.17803 53.4185 3.24522 53.3575C3.31241 53.2972 3.41631 53.3021 3.47709 53.3691C3.60741 53.5132 3.75209 53.6418 3.90756 53.7511C3.94319 53.7161 3.97944 53.6822 4.01647 53.6494C4.08397 53.5888 4.18772 53.5952 4.24819 53.6632C4.30834 53.7311 4.30209 53.835 4.23428 53.895C4.08537 54.0272 3.94725 54.1824 3.82428 54.3566C3.79225 54.4019 3.74147 54.426 3.68991 54.426ZM6.49913 53.7553C6.45069 53.7553 6.40287 53.7341 6.37037 53.6935C6.35897 53.6791 6.34569 53.6646 6.33069 53.6502C6.21897 53.5436 6.06975 53.4622 5.90069 53.415C5.8135 53.3907 5.76225 53.3002 5.78662 53.213C5.811 53.1255 5.90147 53.0741 5.98881 53.0988C6.20928 53.16 6.406 53.2688 6.55787 53.4132C6.58491 53.4394 6.60772 53.4641 6.62741 53.4888C6.68366 53.56 6.67194 53.6633 6.601 53.7197C6.571 53.7438 6.53491 53.7553 6.49913 53.7553ZM4.6685 53.5716C4.60756 53.5716 4.54912 53.5375 4.52084 53.4793C4.481 53.3978 4.51491 53.2997 4.59631 53.2599C4.81506 53.153 5.04241 53.0838 5.27225 53.0533C5.36397 53.0399 5.44459 53.105 5.45647 53.1947C5.46834 53.2846 5.40506 53.3672 5.31522 53.3791C5.12053 53.4047 4.92709 53.4638 4.74038 53.5549C4.71709 53.5661 4.69256 53.5716 4.6685 53.5716ZM2.971 53.1132C2.91444 53.1132 2.85928 53.0839 2.82881 53.0314C2.71866 52.8416 2.62147 52.6327 2.54037 52.4111C2.50912 52.3261 2.55272 52.2319 2.63787 52.2003C2.72366 52.1696 2.81725 52.2129 2.84866 52.2982C2.92334 52.5018 3.01241 52.693 3.11303 52.8664C3.15866 52.945 3.13178 53.0454 3.05334 53.091C3.02741 53.1061 2.99897 53.1132 2.971 53.1132ZM2.51303 51.8886C2.43741 51.8886 2.36928 51.836 2.35272 51.7591C2.33959 51.6982 2.32725 51.636 2.31569 51.5727C2.28569 51.4085 2.26178 51.2494 2.24397 51.0958C2.23334 51.0057 2.29803 50.9243 2.38819 50.9136C2.48053 50.9047 2.55959 50.9682 2.57022 51.058C2.58741 51.2046 2.60991 51.3566 2.63866 51.5138C2.64959 51.5738 2.66131 51.6321 2.67381 51.6899C2.69287 51.7783 2.63662 51.866 2.54787 51.8849C2.53616 51.8874 2.52459 51.8886 2.51303 51.8886ZM2.36491 50.586C2.27491 50.586 2.20162 50.5135 2.20069 50.4233L2.20053 50.3771C2.20053 50.1599 2.2135 49.9475 2.23897 49.7466C2.25053 49.6564 2.33334 49.5936 2.42256 49.6043C2.51256 49.6158 2.57616 49.6978 2.56475 49.7877C2.54084 49.9757 2.52881 50.1738 2.52881 50.3772L2.52897 50.4202C2.52991 50.5107 2.45709 50.585 2.36647 50.586C2.366 50.586 2.36537 50.586 2.36491 50.586ZM2.53631 49.2899C2.52069 49.2899 2.50491 49.2877 2.48928 49.2832C2.40241 49.2569 2.35303 49.1655 2.37897 49.0785C2.446 48.8546 2.53287 48.6403 2.63741 48.4422C2.67975 48.3621 2.77881 48.3316 2.85928 48.3736C2.93944 48.416 2.97022 48.5153 2.92787 48.5955C2.83319 48.7747 2.75428 48.9691 2.6935 49.1728C2.67225 49.2439 2.60709 49.2899 2.53631 49.2899ZM3.14678 48.1385C3.10975 48.1385 3.07241 48.126 3.04178 48.1004C2.97225 48.0422 2.96272 47.9386 3.021 47.8691C3.16756 47.6933 3.33428 47.5318 3.51647 47.3886C3.58787 47.3332 3.69084 47.345 3.74694 47.4164C3.80303 47.4877 3.79053 47.591 3.71912 47.6471C3.55506 47.7757 3.40506 47.9213 3.27303 48.0794C3.24069 48.1183 3.19397 48.1385 3.14678 48.1385ZM4.17241 47.3305C4.11225 47.3305 4.05444 47.2975 4.02553 47.24C3.98475 47.1589 4.01756 47.0603 4.0985 47.0197C4.46631 46.8347 4.74334 46.7766 4.75491 46.7741C4.84428 46.7552 4.93037 46.8128 4.94866 46.9018C4.96694 46.9905 4.90991 47.0775 4.82116 47.0958C4.81881 47.0964 4.57225 47.1491 4.24616 47.313C4.22241 47.3252 4.19709 47.3305 4.17241 47.3305Z" fill="#241726"/>
<path d="M73.7671 47.743C73.7624 47.743 73.7575 47.7427 73.753 47.7424C73.525 47.7229 73.296 47.6732 73.0722 47.5943C72.9868 47.5641 72.9419 47.4702 72.9721 47.3849C73.0022 47.2993 73.0955 47.2537 73.1816 47.2845C73.379 47.354 73.5807 47.398 73.7808 47.4154C73.8713 47.423 73.9382 47.5026 73.9305 47.593C73.9233 47.6787 73.8515 47.743 73.7671 47.743ZM74.4205 47.7113C74.3429 47.7113 74.2738 47.6562 74.2591 47.577C74.2425 47.4877 74.3016 47.4021 74.3908 47.3859C74.5875 47.3493 74.7847 47.2865 74.9766 47.1988C75.0594 47.1613 75.1563 47.1976 75.1943 47.2799C75.2318 47.3627 75.1955 47.4598 75.113 47.4977C74.8966 47.5965 74.6738 47.6674 74.4505 47.7085C74.4404 47.7104 74.4304 47.7113 74.4205 47.7113ZM72.5361 47.3188C72.5068 47.3188 72.4769 47.3109 72.45 47.2945C72.2602 47.1771 72.076 47.0382 71.9024 46.8807C71.8352 46.8201 71.83 46.7162 71.891 46.6488C71.9516 46.5815 72.0558 46.5763 72.123 46.6376C72.2816 46.7813 72.4497 46.9084 72.6225 47.0148C72.6997 47.0626 72.7236 47.1637 72.676 47.2409C72.645 47.2912 72.5911 47.3188 72.5361 47.3188ZM75.6102 47.1802C75.5593 47.1802 75.509 47.1565 75.4769 47.1123C75.4238 47.0385 75.4404 46.9359 75.514 46.8829C75.6755 46.7662 75.8371 46.6285 75.9941 46.4737C76.0591 46.4102 76.1629 46.4109 76.2263 46.4755C76.29 46.5401 76.2893 46.644 76.2247 46.7077C76.0557 46.8741 75.8815 47.0227 75.7061 47.149C75.6771 47.1702 75.6435 47.1802 75.6102 47.1802ZM71.5655 46.4432C71.5168 46.4432 71.4686 46.4216 71.4363 46.3804C71.29 46.1943 71.1641 46.0007 71.0618 45.8054C71.0197 45.7249 71.0507 45.6257 71.131 45.5834C71.2115 45.542 71.3105 45.5724 71.3525 45.6526C71.4457 45.8305 71.5607 46.0073 71.6944 46.1776C71.7505 46.2488 71.738 46.3521 71.6668 46.4082C71.6368 46.4316 71.601 46.4432 71.5655 46.4432ZM76.5483 46.2671C76.5122 46.2671 76.4758 46.2552 76.4455 46.2309C76.3749 46.1741 76.3638 46.0705 76.4205 45.9999C76.5029 45.8973 76.5854 45.7885 76.6675 45.6738C76.713 45.6099 76.7557 45.5465 76.7957 45.4837C76.8449 45.4074 76.9463 45.3849 77.0224 45.4334C77.099 45.4821 77.1213 45.5838 77.0727 45.6601C77.0294 45.728 76.9835 45.796 76.9347 45.8645C76.8488 45.9851 76.7625 46.0988 76.6763 46.206C76.644 46.2463 76.5965 46.2671 76.5483 46.2671ZM77.2397 45.1555C77.2188 45.1555 77.1972 45.1513 77.1768 45.143C77.093 45.108 77.0533 45.0123 77.088 44.9282C77.1702 44.731 77.2304 44.5309 77.2671 44.3335C77.2838 44.2443 77.3685 44.1854 77.4588 44.2023C77.548 44.219 77.6066 44.3046 77.5902 44.3937C77.5491 44.6137 77.4822 44.836 77.3915 45.0545C77.3652 45.1173 77.3041 45.1555 77.2397 45.1555ZM77.4729 43.8745C77.3861 43.8745 77.3136 43.8065 77.309 43.7188C77.2983 43.5149 77.2636 43.3102 77.2054 43.1104C77.18 43.0235 77.23 42.9324 77.3171 42.9068C77.4041 42.8821 77.4952 42.9315 77.5205 43.0187C77.5858 43.2429 77.625 43.4726 77.6369 43.7015C77.6416 43.7923 77.5719 43.8696 77.4815 43.874C77.4786 43.8745 77.4758 43.8745 77.4729 43.8745ZM77.1146 42.6224C77.0558 42.6224 76.9991 42.591 76.9694 42.5355C76.8743 42.357 76.7585 42.1805 76.6254 42.0115C76.5694 41.9399 76.5816 41.8366 76.6529 41.7809C76.7241 41.7245 76.8277 41.7376 76.8835 41.808C77.0286 41.9924 77.155 42.1852 77.2594 42.3809C77.3021 42.461 77.2718 42.5605 77.1918 42.6032C77.1669 42.6163 77.1405 42.6224 77.1146 42.6224ZM73.929 41.8655C73.8397 41.8655 73.7665 41.794 73.7647 41.7046C73.763 41.6141 73.835 41.5391 73.9255 41.5373C74.1088 41.5337 74.3105 41.4982 74.525 41.4318C74.6127 41.4046 74.7036 41.4537 74.7305 41.5402C74.7572 41.6268 74.7088 41.7188 74.6222 41.7455C74.3782 41.8209 74.146 41.8616 73.9321 41.8659C73.9311 41.8655 73.93 41.8655 73.929 41.8655ZM73.3011 41.7112C73.2691 41.7112 73.2366 41.7018 73.2083 41.6823C73.0004 41.5393 72.8858 41.3176 72.8858 41.0585C72.8858 41.0259 72.8875 40.9921 72.8913 40.9577C72.9008 40.8673 72.9802 40.8005 73.0721 40.8118C73.1622 40.8215 73.2275 40.9023 73.2179 40.9924C73.2155 41.0152 73.2143 41.0373 73.2143 41.0585C73.2143 41.2105 73.2749 41.3295 73.3944 41.4116C73.4691 41.4629 73.488 41.5652 73.4368 41.6399C73.4047 41.6865 73.3533 41.7112 73.3011 41.7112ZM76.3099 41.5913C76.2696 41.5913 76.2293 41.5766 76.1977 41.5471C76.0597 41.4176 75.9119 41.2954 75.7575 41.183C75.5904 41.2955 75.4216 41.3963 75.2549 41.4826C75.1741 41.5243 75.075 41.4926 75.0336 41.412C74.9921 41.3315 75.0235 41.2323 75.1041 41.1907C75.2835 41.098 75.4658 40.9871 75.6463 40.861C75.6966 40.8257 75.7605 40.8232 75.8125 40.8482C75.8415 40.8504 75.8704 40.8601 75.8957 40.878C76.081 41.0088 76.2582 41.1535 76.4222 41.3071C76.4885 41.3693 76.4918 41.4732 76.4297 41.5393C76.3972 41.574 76.3536 41.5913 76.3099 41.5913ZM75.2396 40.8351C75.2143 40.8351 75.1885 40.8293 75.1643 40.8168C74.97 40.716 74.7749 40.634 74.5843 40.5727C74.4979 40.5451 74.4504 40.4527 74.4782 40.3662C74.5061 40.2799 74.599 40.2324 74.6847 40.2604C74.8927 40.3271 75.1049 40.4163 75.3154 40.5249C75.3958 40.5666 75.4272 40.6657 75.3855 40.7462C75.3563 40.8026 75.2991 40.8351 75.2396 40.8351ZM76.2565 40.7545C76.2107 40.7545 76.1652 40.7355 76.1329 40.6984C76.0732 40.6301 76.08 40.5262 76.1485 40.4665C76.3057 40.3291 76.4615 40.1801 76.6119 40.0226C76.6744 39.9571 76.7788 39.9549 76.844 40.0174C76.9096 40.0799 76.9119 40.1838 76.8493 40.2496C76.6922 40.4138 76.5293 40.5701 76.3646 40.714C76.3332 40.741 76.2947 40.7545 76.2565 40.7545ZM73.3582 40.5826C73.304 40.5826 73.2508 40.5557 73.2196 40.5065C73.1708 40.4302 73.1933 40.3285 73.2696 40.2798C73.434 40.1752 73.6449 40.122 73.8965 40.122C73.9257 40.1195 73.9644 40.1229 73.9997 40.1248C74.0904 40.1293 74.1599 40.2065 74.1555 40.297C74.1508 40.3877 74.0733 40.4612 73.9832 40.4526C73.9538 40.451 73.9216 40.448 73.8969 40.4504C73.7111 40.4504 73.5555 40.4873 73.4465 40.5568C73.419 40.5743 73.3883 40.5826 73.3582 40.5826ZM77.1641 39.8074C77.1277 39.8074 77.0911 39.7952 77.0607 39.7705C76.9902 39.7135 76.9797 39.6099 77.0369 39.5396C77.1691 39.377 77.3 39.2038 77.4263 39.0249C77.4785 38.9509 77.5815 38.9329 77.6552 38.9851C77.7293 39.0374 77.7471 39.1399 77.6949 39.214C77.5644 39.399 77.4288 39.5784 77.2918 39.7468C77.2591 39.787 77.2119 39.8074 77.1641 39.8074ZM77.921 38.7352C77.8916 38.7352 77.8619 38.7276 77.8352 38.7109C77.7579 38.6634 77.7336 38.5624 77.7813 38.4851C77.861 38.3552 77.94 38.2209 78.018 38.0816C78.0469 38.0298 78.0744 37.9784 78.1005 37.9268C78.1418 37.846 78.2407 37.8141 78.3211 37.8543C78.4021 37.8954 78.4346 37.9941 78.3936 38.0749C78.3654 38.1304 78.3358 38.1862 78.3046 38.242C78.2243 38.3849 78.1432 38.5232 78.0611 38.657C78.03 38.7073 77.9761 38.7352 77.921 38.7352ZM78.4943 37.5576C78.4783 37.5576 78.4621 37.5554 78.446 37.5502C78.3593 37.5237 78.3107 37.432 78.3372 37.3449C78.3999 37.1416 78.4418 36.9363 78.4618 36.7349C78.4705 36.6445 78.548 36.581 78.6413 36.5874C78.7315 36.5963 78.7975 36.677 78.7885 36.767C78.7663 36.9905 78.7202 37.2173 78.6511 37.4418C78.6294 37.5123 78.5646 37.5576 78.4943 37.5576ZM78.6182 36.2599C78.5361 36.2599 78.4652 36.1987 78.4552 36.1149C78.4311 35.9132 78.3844 35.7096 78.3165 35.5107C78.2871 35.4248 78.333 35.3315 78.4188 35.302C78.5043 35.2734 78.5982 35.3187 78.6272 35.4043C78.7027 35.6252 78.7546 35.8513 78.7813 36.0765C78.7921 36.1663 78.7277 36.248 78.6377 36.2587C78.6313 36.2596 78.6246 36.2599 78.6182 36.2599ZM78.2021 35.0248C78.1449 35.0248 78.0894 34.9949 78.0591 34.9413C77.9586 34.7643 77.8396 34.5888 77.7047 34.4198C77.6482 34.3488 77.6597 34.2455 77.7305 34.1891C77.8016 34.133 77.9049 34.144 77.9613 34.2151C78.1069 34.3976 78.236 34.5874 78.3449 34.7796C78.3896 34.8585 78.3619 34.9585 78.283 35.0032C78.2572 35.018 78.2296 35.0248 78.2021 35.0248ZM77.3888 33.9971C77.3479 33.9971 77.3071 33.982 77.275 33.9515C77.125 33.8079 76.9618 33.669 76.7893 33.5387C76.7169 33.4838 76.7025 33.3809 76.7572 33.3084C76.8118 33.2359 76.9147 33.2221 76.9872 33.2763C77.1699 33.4143 77.3432 33.5618 77.5025 33.7141C77.568 33.777 77.5702 33.8809 77.5074 33.9463C77.475 33.9802 77.4319 33.9971 77.3888 33.9971ZM73.4713 33.7765C73.1515 33.7765 72.9497 33.561 72.9318 33.2001C72.9272 33.1096 72.9971 33.0327 73.0877 33.0282C73.1744 33.0135 73.2554 33.0934 73.2599 33.1841C73.273 33.448 73.4069 33.448 73.4713 33.448C73.5605 33.448 73.644 33.5193 73.6461 33.6084C73.648 33.6976 73.5891 33.772 73.4999 33.7759C73.4974 33.7762 73.4738 33.7765 73.4713 33.7765ZM74.0971 33.5391C74.0435 33.5391 73.9911 33.5132 73.9596 33.4651C73.9099 33.3891 73.9308 33.2874 74.0068 33.2377C74.1644 33.1341 74.3258 33.0007 74.4865 32.8404C74.5508 32.777 74.6547 32.7766 74.7186 32.8407C74.7825 32.9052 74.7825 33.0091 74.7183 33.0732C74.5421 33.249 74.3633 33.3968 74.1871 33.5123C74.1594 33.5305 74.1282 33.5391 74.0971 33.5391ZM76.3436 33.2054C76.3149 33.2054 76.2858 33.198 76.2594 33.182C76.0754 33.072 75.885 32.9713 75.6941 32.8834C75.6118 32.8455 75.5758 32.748 75.6138 32.6655C75.6516 32.5827 75.7483 32.5465 75.8318 32.5851C76.0333 32.678 76.234 32.784 76.4282 32.9004C76.506 32.947 76.5313 33.0476 76.4847 33.1255C76.454 33.1768 76.3994 33.2054 76.3436 33.2054ZM73.2708 32.7405C73.2313 32.7405 73.1919 32.7265 73.1605 32.6979C73.0933 32.637 73.0883 32.533 73.1493 32.466C73.3046 32.2948 73.5366 32.1896 73.839 32.1534C73.9311 32.1421 74.0108 32.2066 74.0218 32.2968C74.0325 32.3866 73.9683 32.4684 73.8783 32.4793C73.6596 32.5059 73.4916 32.5774 73.3922 32.6868C73.3599 32.7223 73.3154 32.7405 73.2708 32.7405ZM75.1513 32.6579C75.1344 32.6579 75.1175 32.6554 75.1007 32.6499C75.0736 32.6413 75.0466 32.6326 75.0197 32.6246C74.9969 32.6227 74.9741 32.6163 74.9533 32.6048C74.7927 32.5585 74.6366 32.5237 74.488 32.5005C74.3985 32.4865 74.3371 32.4027 74.3511 32.3129C74.365 32.2237 74.4483 32.1635 74.5388 32.176C74.6777 32.1979 74.8218 32.2287 74.9697 32.2684C75.0699 32.1285 75.1646 31.9816 75.2519 31.8302C75.2972 31.7516 75.3979 31.7245 75.4763 31.7702C75.5549 31.8155 75.5818 31.9159 75.5365 31.9945C75.4571 32.1318 75.3721 32.2659 75.2825 32.3948C75.3136 32.4362 75.3249 32.4916 75.3077 32.5446C75.285 32.6135 75.2207 32.6579 75.1513 32.6579ZM75.6885 31.4891C75.6668 31.4891 75.6447 31.4849 75.6233 31.4757C75.54 31.4398 75.5019 31.3429 75.5379 31.2599C75.6219 31.0655 75.6955 30.8641 75.7569 30.6612C75.783 30.5746 75.8749 30.5255 75.9616 30.5515C76.0483 30.5777 76.0975 30.6691 76.0713 30.7562C76.0063 30.9713 75.9283 31.1846 75.8394 31.3902C75.8125 31.4523 75.7519 31.4891 75.6885 31.4891ZM76.0677 30.2348C76.058 30.2348 76.0483 30.2338 76.0383 30.2323C75.9491 30.2162 75.8899 30.1305 75.9058 30.0415C75.9435 29.833 75.9694 29.6201 75.9827 29.4087C75.9883 29.3182 76.0671 29.2451 76.1571 29.2551C76.2475 29.2609 76.3163 29.3388 76.3105 29.4293C76.2965 29.6535 76.269 29.879 76.2293 30.0999C76.2147 30.179 76.1457 30.2348 76.0677 30.2348ZM76.1411 28.9276C76.0574 28.9276 75.986 28.8641 75.9779 28.7791C75.9575 28.5668 75.9168 28.3626 75.8563 28.172C75.8288 28.0854 75.8766 27.993 75.9632 27.9657C76.05 27.9391 76.1421 27.9862 76.1694 28.0726C76.2368 28.2852 76.2825 28.5123 76.3047 28.7477C76.3133 28.8382 76.2472 28.9184 76.1569 28.927C76.1516 28.9271 76.1463 28.9276 76.1411 28.9276ZM75.7435 27.6909C75.688 27.6909 75.6338 27.6626 75.6029 27.612C75.498 27.4388 75.3705 27.2755 75.2236 27.126C75.1602 27.0612 75.1611 26.9573 75.2257 26.8938C75.2905 26.8301 75.394 26.831 75.458 26.8957C75.6224 27.0632 75.7658 27.247 75.8838 27.4413C75.9308 27.519 75.9061 27.6199 75.8285 27.6671C75.8018 27.683 75.7724 27.6909 75.7435 27.6909ZM74.8361 26.7562C74.8044 26.7562 74.7722 26.7468 74.7438 26.7276C74.5779 26.6146 74.3933 26.5098 74.1952 26.4165C74.1133 26.378 74.0782 26.2799 74.1168 26.198C74.1552 26.1155 74.2536 26.081 74.3354 26.1195C74.549 26.2202 74.7486 26.3334 74.9288 26.4562C75.0036 26.5071 75.0232 26.6095 74.9719 26.6843C74.9402 26.7312 74.8885 26.7562 74.8361 26.7562ZM73.654 26.1907C73.6369 26.1907 73.6197 26.188 73.6029 26.1827C73.4055 26.1179 73.1972 26.0615 72.9841 26.0146C72.8955 25.9954 72.8394 25.9077 72.8588 25.8193C72.878 25.7304 72.965 25.6743 73.0543 25.6938C73.2782 25.7429 73.4972 25.8023 73.705 25.8702C73.7911 25.8988 73.8382 25.9915 73.8099 26.0777C73.7874 26.1468 73.723 26.1907 73.654 26.1907ZM72.3705 25.906C72.3636 25.906 72.3566 25.9057 72.3494 25.9048C71.969 25.856 71.7132 25.8538 71.7105 25.8538C71.6199 25.8532 71.5469 25.7791 71.5474 25.6887C71.548 25.5982 71.6213 25.5254 71.7116 25.5254C71.723 25.5276 71.9775 25.5263 72.391 25.579C72.481 25.5905 72.5444 25.6726 72.533 25.7627C72.5227 25.8454 72.4519 25.906 72.3705 25.906Z" fill="#241726"/>
<path d="M65.117 35.8179C65.117 35.8179 61.6174 29.9382 62.9962 30.2622C64.3751 30.5863 65.4768 34.2955 65.4768 34.2955C65.4768 34.2955 65.6734 26.8696 66.6006 27.9861C67.5279 29.1027 66.6006 32.9046 66.6006 32.9046C66.6006 32.9046 66.5921 26.7769 67.7554 27.9861C68.9187 29.1954 67.7554 33.3683 67.7554 33.3683C67.7554 33.3683 68.9187 28.2207 69.4751 29.2182C70.0315 30.2155 68.6406 34.3885 68.6406 34.3885C68.6406 34.3885 70.5879 31.1315 70.9588 31.8791C71.3298 32.6266 67.7554 37.0777 67.7554 37.0777V40.2305L64.7459 39.703L65.117 35.8179Z" fill="#E38B72"/>
<path d="M66.8303 36.252C66.8158 36.252 66.801 36.2502 66.7863 36.2459C66.6991 36.2219 66.6478 36.1314 66.6719 36.0439C66.7522 35.7533 66.8842 34.9211 66.5338 34.5663C66.3366 34.3664 65.995 34.3286 65.5186 34.4541C65.4313 34.4784 65.3413 34.4248 65.318 34.337C65.2949 34.2495 65.3474 34.1597 65.4349 34.1366C66.0331 33.9791 66.4817 34.0464 66.768 34.3361C67.323 34.8989 67.0021 36.0819 66.9883 36.1319C66.9683 36.2047 66.9022 36.252 66.8303 36.252Z" fill="#241726"/>
<path d="M66.6007 33.0689C66.5135 33.0689 66.4409 33.0003 66.4368 32.912C66.4057 32.2298 66.5463 30.3305 66.5524 30.25C66.559 30.1595 66.6388 30.0903 66.7284 30.0983C66.8188 30.105 66.8866 30.1839 66.8799 30.2744C66.8785 30.2939 66.7348 32.2347 66.7649 32.8972C66.7691 32.9877 66.6988 33.0647 66.6084 33.0684C66.6059 33.0689 66.6034 33.0689 66.6007 33.0689Z" fill="#241726"/>
<path d="M67.7556 33.5318C67.7464 33.5318 67.737 33.5312 67.7276 33.5296C67.6381 33.5143 67.5782 33.4292 67.5935 33.3398L68.0915 30.4392C68.1068 30.35 68.1918 30.2898 68.2811 30.3051C68.3706 30.3204 68.4304 30.4054 68.4151 30.495L67.9171 33.3956C67.9035 33.4754 67.8342 33.5318 67.7556 33.5318Z" fill="#241726"/>
<path d="M63.8083 36.667C63.8083 36.667 63.9461 46.6573 63.2427 46.9356C62.5393 47.2139 55.7869 42.9996 55.7869 42.9996L40.0204 44.1834L24.2274 45.5006C24.2274 45.5006 9.36396 52.2906 9.22333 54.5415C9.08271 56.7923 16.556 60.9182 16.556 60.9182L20.0377 57.2782L13.3011 54.8164L22.2588 51.6048C20.4633 58.1243 19.8133 63.6086 19.8133 63.6086L32.5571 63.3945L35.9322 72.5417L39.8854 72.2032L40.638 63.2587L41.9238 63.2371L42.6783 72.2032L46.6315 72.5417L50.1155 63.0995L63.7772 62.87C63.7772 62.87 61.8201 55.6217 58.0869 47.9601C60.8866 48.7982 64.4724 49.8732 65.0433 50.0528C66.0002 50.3536 68.6091 38.1593 68.6091 38.1593L63.8083 36.667Z" fill="#DF4F3E"/>
<path d="M38.1111 41.3944L39.3006 62.1311L18.8178 62.1863L19.2398 66.3514L65.0442 64.9798L64.5915 60.7856L41.7959 61.7094C41.7959 61.7094 41.094 40.6078 40.4611 40.7133C39.8282 40.8188 38.1111 41.3944 38.1111 41.3944Z" fill="white"/>
<path d="M19.24 66.5156C19.1559 66.5156 19.085 66.4522 19.0765 66.3681L18.6545 62.2028C18.6498 62.1566 18.665 62.1108 18.6959 62.0761C18.727 62.0417 18.7711 62.0219 18.8175 62.0219L39.127 61.967L37.9472 41.4034C37.9428 41.3297 37.9887 41.262 38.0589 41.2386C38.1295 41.2148 39.7956 40.6578 40.4343 40.5513C40.48 40.5439 40.557 40.5653 40.5937 40.5955C41.2204 41.1086 41.7872 56.5328 41.9547 61.5384L64.5851 60.6213C64.6679 60.62 64.7458 60.6819 64.755 60.7678L65.2075 64.9619C65.2125 65.0075 65.1981 65.053 65.1679 65.0873C65.1379 65.122 65.0948 65.1422 65.0492 65.1438L19.245 66.5156C19.2432 66.5156 19.2415 66.5156 19.24 66.5156ZM18.9997 62.3497L19.3881 66.1827L64.862 64.8209L64.4451 60.9559L41.8028 61.8736C41.7612 61.8739 41.7167 61.8595 41.6845 61.8297C41.6525 61.7998 41.6337 61.7584 41.6322 61.7148C41.37 53.835 40.8314 41.9727 40.4007 40.8919C39.8378 41.0048 38.6597 41.3864 38.2822 41.5109L39.4647 62.1219C39.4672 62.1667 39.4512 62.2111 39.4203 62.2438C39.3895 62.2764 39.3464 62.2955 39.3012 62.2955L18.9997 62.3497Z" fill="#241726"/>
<path d="M24.0646 16.7635C24.0646 16.7635 35.6552 9.4946 41.001 13.7149C46.3466 17.9352 58.4824 27.9882 38.3432 34.559C18.204 41.1298 19.141 19.999 24.0646 16.7635Z" fill="#E38B72"/>
<path d="M24.5009 18.7871C24.5009 18.7871 18.0159 29.5598 27.7227 33.9207C37.4294 38.2817 29.3405 24.9929 36.5149 24.9226C43.6892 24.8523 43.1675 33.9595 46.2917 28.5098C50.723 20.7803 38.5038 14.8459 40.3325 14.5645C42.1613 14.2831 43.4236 13.794 43.9706 14.8642C45.5884 18.0293 64.5092 20.7725 62.3991 31.3232C60.2889 41.8739 53.8178 49.4704 35.2488 50.0331C16.6795 50.5961 11.6856 38.7793 16.4686 29.9167C21.2516 21.0542 18.74 19.5025 20.2875 19.3618C21.8349 19.2212 24.5009 18.7871 24.5009 18.7871Z" fill="#F4F1E3"/>
<path d="M37.2531 27.201C36.7017 27.201 35.1995 26.0377 34.5518 25.5143C34.4814 25.4576 34.4704 25.354 34.5273 25.2833C34.5845 25.2132 34.6875 25.2016 34.7584 25.259C35.6917 26.013 36.825 26.8 37.1751 26.8722C37.1476 26.354 36.1293 23.9216 35.1004 21.738C35.0618 21.656 35.097 21.5582 35.1789 21.5196C35.2612 21.4811 35.359 21.5157 35.3975 21.5982C36.0933 23.0744 37.6884 26.5621 37.4751 27.061C37.4486 27.1229 37.4009 27.1682 37.3408 27.1883C37.315 27.1968 37.2858 27.201 37.2531 27.201Z" fill="#241726"/>
<path d="M38.0386 32.1263C37.9378 32.1263 37.8199 32.0981 37.6858 32.0212C36.136 31.1334 34.5739 28.0329 34.5083 27.9015C34.4677 27.8204 34.5006 27.7215 34.5817 27.6812C34.6627 27.6404 34.7616 27.6738 34.8021 27.7546C34.8177 27.786 36.3852 30.8978 37.8491 31.7363C38.0116 31.829 38.0963 31.7973 38.146 31.7653C38.7497 31.374 38.6842 28.322 38.5011 26.4903C38.4921 26.4001 38.5578 26.3196 38.6481 26.3106C38.74 26.3006 38.8189 26.3673 38.828 26.4574C38.8785 26.9629 39.2936 31.4126 38.3246 32.0406C38.2542 32.0863 38.1585 32.1263 38.0386 32.1263Z" fill="#241726"/>
<path d="M29.0994 26.6384C27.1603 26.6384 26.1969 22.875 26.1561 22.7118C26.1339 22.624 26.1875 22.5348 26.2754 22.5126C26.3637 22.4911 26.4526 22.544 26.4747 22.6323C26.4844 22.6701 27.4545 26.4403 29.1872 26.3065C29.4797 26.285 29.6869 26.1703 29.8203 25.9556C30.3892 25.0415 29.4783 22.7564 29.4689 22.7336C29.435 22.6492 29.4756 22.5536 29.5598 22.5196C29.6431 22.4864 29.7395 22.5264 29.7734 22.6104C29.814 22.7104 30.7558 25.0736 30.0992 26.1287C29.909 26.4343 29.6103 26.6043 29.2114 26.6342C29.1737 26.6368 29.1364 26.6384 29.0994 26.6384Z" fill="#241726"/>
<path d="M40.5922 23.6999C40.5298 23.6999 40.4617 23.6929 40.387 23.6771C38.6445 23.3054 38.198 20.0876 38.1798 19.9507C38.168 19.8609 38.2311 19.7785 38.3209 19.7667C38.4106 19.7499 38.4933 19.8176 38.5053 19.9077C38.5095 19.9388 38.9387 23.0323 40.4555 23.3559C40.6852 23.4046 40.7827 23.3312 40.8347 23.2712C41.2714 22.7712 40.7358 20.6423 40.2956 19.4177C40.265 19.3324 40.3092 19.2385 40.3947 19.2077C40.4792 19.1776 40.5737 19.2215 40.6047 19.3068C40.7278 19.6493 41.7883 22.6785 41.082 23.4871C40.9917 23.5909 40.8381 23.6999 40.5922 23.6999Z" fill="#241726"/>
<path d="M27.968 30.3194C28.6844 29.8899 28.9169 28.9611 28.4875 28.2448C28.058 27.5285 27.1292 27.2959 26.4129 27.7254C25.6966 28.1548 25.464 29.0836 25.8935 29.7999C26.3229 30.5162 27.2517 30.7488 27.968 30.3194Z" fill="#DF4F3E"/>
<path d="M43.6541 25.0434C44.4893 25.0434 45.1663 24.3664 45.1663 23.5312C45.1663 22.6961 44.4893 22.019 43.6541 22.019C42.819 22.019 42.1419 22.6961 42.1419 23.5312C42.1419 24.3664 42.819 25.0434 43.6541 25.0434Z" fill="#DF4F3E"/>
<path d="M38.0572 12.2904C38.0572 12.2904 34.3892 6.35352 28.2425 3.25868C22.0956 0.163838 13.0925 10.7848 13.0925 10.7848L21.1814 8.53399C21.1814 8.53399 19.6547 16.0145 20.2876 16.8362C20.9204 17.6579 38.0572 12.2904 38.0572 12.2904Z" fill="#DF4F3E"/>
<path d="M12.3197 13.0373C13.5124 13.0373 14.4792 12.0705 14.4792 10.8778C14.4792 9.68512 13.5124 8.71826 12.3197 8.71826C11.127 8.71826 10.1602 9.68512 10.1602 10.8778C10.1602 12.0705 11.127 13.0373 12.3197 13.0373Z" fill="white"/>
<path d="M12.3199 13.2017C11.0386 13.2017 9.99612 12.1594 9.99612 10.8781C9.99612 9.59686 11.0386 8.5542 12.3199 8.5542C13.6011 8.5542 14.6436 9.59686 14.6436 10.8781C14.6436 12.1594 13.6011 13.2017 12.3199 13.2017ZM12.3199 8.88248C11.2196 8.88248 10.3244 9.77764 10.3244 10.8779C10.3244 11.9779 11.2196 12.8731 12.3199 12.8731C13.42 12.8731 14.3152 11.9779 14.3152 10.8779C14.3152 9.77764 13.42 8.88248 12.3199 8.88248Z" fill="#241726"/>
<path d="M19.2393 16.3944C19.2393 16.3944 39.7311 8.61878 41.4143 10.3803C43.0974 12.1419 43.9704 14.8644 43.9704 14.8644C43.9704 14.8644 20.1258 22.7047 19.6335 21.6685C19.141 20.6322 19.2393 16.3944 19.2393 16.3944Z" fill="white"/>
<path d="M19.97 21.9258C19.5738 21.9258 19.5243 21.8216 19.4849 21.7388C18.9816 20.6794 19.071 16.5652 19.075 16.3903C19.0766 16.3236 19.1185 16.2642 19.181 16.2405C21.2886 15.441 39.8241 8.47893 41.5327 10.2664C43.2224 12.0352 44.0904 14.7011 44.1265 14.8139C44.1541 14.8999 44.1071 14.9919 44.0215 15.0199C43.9618 15.0397 37.9897 17.0016 32.0341 18.8117C23.5707 21.3846 20.8721 21.9258 19.97 21.9258ZM19.7724 21.5778C20.7161 22.0441 34.8922 17.673 43.7608 14.7602C43.5488 14.1633 42.7054 11.9692 41.2957 10.4936C40.12 9.26299 27.6 13.4028 19.4016 16.5085C19.3907 17.1744 19.3552 20.6485 19.7724 21.5778Z" fill="#241726"/>
<path d="M20.8052 27.5867C21.6745 26.7174 21.6745 25.308 20.8052 24.4387C19.936 23.5695 18.5266 23.5695 17.6573 24.4387C16.788 25.308 16.788 26.7174 17.6573 27.5867C18.5266 28.4559 19.936 28.4559 20.8052 27.5867Z" fill="#E38B72"/>
<path d="M48.0176 20.032C49.247 20.032 50.2436 19.0354 50.2436 17.806C50.2436 16.5767 49.247 15.5801 48.0176 15.5801C46.7883 15.5801 45.7917 16.5767 45.7917 17.806C45.7917 19.0354 46.7883 20.032 48.0176 20.032Z" fill="#E38B72"/>
<path d="M19.8888 26.8947C19.8091 26.8947 19.7391 26.8367 19.7266 26.7555C19.5538 25.6394 19.2419 25.3202 19.011 25.2488C18.6503 25.1381 18.2547 25.5538 18.2505 25.5577C18.1889 25.6241 18.0852 25.6278 18.0185 25.5656C17.9522 25.5038 17.9483 25.4005 18.0102 25.3341C18.0319 25.3106 18.5486 24.7635 19.1063 24.9344C19.5735 25.0775 19.8913 25.6733 20.0511 26.7055C20.0649 26.795 20.0036 26.8789 19.9141 26.8928C19.9055 26.8941 19.897 26.8947 19.8888 26.8947Z" fill="#241726"/>
<path d="M47.6914 19.3025C47.6202 19.3025 47.5547 19.2559 47.5338 19.1842C47.23 18.1437 47.2567 17.375 47.6128 16.9003C47.9475 16.4539 48.4441 16.4487 48.4652 16.4487C48.5559 16.4487 48.6294 16.5222 48.6294 16.6129C48.6294 16.7034 48.5564 16.7765 48.4662 16.7772C48.4517 16.7775 48.1058 16.7858 47.872 17.102C47.5889 17.485 47.5809 18.1733 47.8491 19.0925C47.8744 19.1794 47.8245 19.2704 47.7375 19.2958C47.722 19.3003 47.7066 19.3025 47.6914 19.3025Z" fill="#241726"/>
<path d="M18.7188 5.60031C18.7188 5.60031 20.8289 8.39359 23.6424 7.33843C26.456 6.28343 25.4008 3.32921 27.2296 6.14265C29.0583 8.95609 33.6022 7.05187 33.5372 6.99359C33.4722 6.93531 29.9024 2.90703 26.878 1.99265C23.8535 1.07843 18.7188 5.60031 18.7188 5.60031Z" fill="#F4F1E3"/>
<path d="M18.8172 58.2275C18.8172 58.2275 21.8492 59.7794 20.8367 62.6021C19.8242 65.4246 14.2611 67.1127 15.3955 65.4549C16.0813 64.4525 19.1938 63.503 19.1938 63.503C19.1938 63.503 15.1177 64.8433 14.3433 63.9779C13.9185 63.503 18.2227 62.8127 18.3881 62.8102C18.5536 62.8079 15.9231 63.1386 15.2902 62.1866C14.6572 61.2346 18.3353 62.9755 18.8174 61.1291C19.2994 59.2827 17.9806 59.3882 17.9806 59.3882L18.8172 58.2275Z" fill="#E38B72"/>
<path d="M21.201 55.8603C21.201 55.8603 60.3549 52.9984 60.4252 53.2094C60.4955 53.4203 61.468 55.8809 61.468 55.8809L20.7774 57.8586L21.201 55.8603Z" fill="#241726"/>
<path d="M36.3516 53.5327L43.6885 52.9072V58.2279L37.0975 58.8913L36.3516 53.5327Z" fill="#E1AF01"/>
<path d="M38.1862 54.6974L41.8547 54.3848V57.0451L38.5592 57.3768L38.1862 54.6974Z" fill="#241726"/>
<path d="M21.181 8.69823C21.1091 8.69823 21.0432 8.65073 21.023 8.57792C20.9986 8.49073 21.0497 8.40026 21.1371 8.37589C22.088 8.11089 24.1496 8.22026 24.2369 8.22542C24.3275 8.23026 24.3968 8.30792 24.3918 8.39823C24.3869 8.4887 24.31 8.5612 24.219 8.55308C24.1982 8.55245 22.124 8.44214 21.2254 8.69198C21.2105 8.6962 21.1955 8.69823 21.181 8.69823Z" fill="#241726"/>
<path d="M36.1164 14.5396C36.0936 14.5396 36.0705 14.5348 36.0486 14.5249C35.966 14.4874 35.9296 14.3899 35.9672 14.3074C36.1467 13.9132 36.3786 13.6935 36.6564 13.6538C37.065 13.5974 37.3885 13.9649 37.4021 13.981C37.4611 14.0496 37.4533 14.1526 37.385 14.212C37.3167 14.2713 37.2132 14.2635 37.1535 14.1955C37.0925 14.126 36.8924 13.9521 36.7016 13.9791C36.5032 14.0084 36.3552 14.2479 36.2661 14.4435C36.2385 14.5041 36.1788 14.5396 36.1164 14.5396Z" fill="#241726"/>
<path d="M37.8622 15.5229C37.8394 15.5229 37.8163 15.5181 37.7944 15.5081C37.7118 15.4706 37.6755 15.3731 37.713 15.2906C37.8924 14.8963 38.1243 14.6767 38.4022 14.637C38.8108 14.5793 39.1343 14.9481 39.1479 14.9642C39.2069 15.0328 39.1991 15.1357 39.1308 15.1951C39.0626 15.2545 38.9591 15.2467 38.8993 15.1787C38.8383 15.1092 38.6366 14.9365 38.4474 14.9623C38.2488 14.9915 38.101 15.231 38.0119 15.4267C37.9843 15.4873 37.9247 15.5229 37.8622 15.5229Z" fill="#241726"/>
<path d="M34.068 15.0104C34.0452 15.0104 34.0221 15.0055 34.0002 14.9957C33.9177 14.9582 33.8813 14.8607 33.9188 14.7782C34.0982 14.384 34.3302 14.164 34.608 14.1243C35.0186 14.0666 35.34 14.4354 35.3536 14.4515C35.4127 14.5201 35.4049 14.623 35.3366 14.6824C35.2682 14.7418 35.1647 14.7344 35.105 14.666C35.0441 14.5965 34.8471 14.4177 34.6532 14.4499C34.4547 14.4788 34.3068 14.7183 34.2175 14.9143C34.19 14.9747 34.1303 15.0104 34.068 15.0104Z" fill="#241726"/>
<path d="M35.7972 15.9012C35.7744 15.9012 35.7515 15.8964 35.7294 15.8865C35.6468 15.849 35.6105 15.7515 35.648 15.669C35.8274 15.2748 36.0593 15.0548 36.3372 15.0151C36.7469 14.9564 37.0694 15.3262 37.0829 15.3423C37.1419 15.4109 37.1341 15.5139 37.0658 15.5732C36.9974 15.6326 36.894 15.6253 36.8343 15.5568C36.7733 15.4873 36.5761 15.3079 36.3824 15.3407C36.184 15.3696 36.036 15.6092 35.9469 15.8051C35.9193 15.8656 35.8597 15.9012 35.7972 15.9012Z" fill="#241726"/>
<path d="M33.6797 16.5872C33.6569 16.5872 33.6338 16.5824 33.6119 16.5725C33.5293 16.535 33.4929 16.4376 33.5305 16.3551C33.7099 15.9608 33.9419 15.7408 34.2197 15.7011C34.63 15.6424 34.9518 16.0122 34.9654 16.0283C35.0244 16.0969 35.0166 16.1999 34.9483 16.2593C34.8799 16.3186 34.7764 16.3111 34.7168 16.2429C34.6558 16.1733 34.4571 15.9949 34.2649 16.0268C34.0664 16.0557 33.9185 16.2952 33.8293 16.4911C33.8018 16.5518 33.7421 16.5872 33.6797 16.5872Z" fill="#241726"/>
<path d="M63.5397 36.0879L63.3542 37.819L69.0417 39.6426L69.7526 37.6643L63.5397 36.0879Z" fill="white"/>
<path d="M69.0417 39.8071C69.025 39.8071 69.0081 39.8046 68.9915 39.7994L63.3042 37.9755C63.2301 37.9514 63.1828 37.8789 63.1911 37.8013L63.3764 36.0704C63.3814 36.0232 63.4068 35.9802 63.4457 35.9533C63.4848 35.9261 63.5339 35.9171 63.58 35.9289L69.7929 37.5057C69.8378 37.5169 69.8759 37.5468 69.8975 37.5877C69.9193 37.6285 69.9226 37.6766 69.9072 37.7202L69.1962 39.6985C69.1722 39.765 69.1092 39.8071 69.0417 39.8071ZM63.5318 37.7035L68.9409 39.438L69.537 37.7796L63.6828 36.2936L63.5318 37.7035Z" fill="#241726"/>
<path d="M19.01 55.8989L15.1658 60.6188L16.7059 61.7095L21.0378 56.6055L19.01 55.8989Z" fill="white"/>
<path d="M16.7058 61.8736C16.673 61.8736 16.6397 61.8636 16.6109 61.8434L15.0706 60.7527C15.0336 60.7264 15.009 60.6859 15.0028 60.6408C14.9967 60.5959 15.0095 60.5503 15.0383 60.515L18.8826 55.7952C18.9262 55.7413 18.9987 55.7205 19.064 55.7439L21.0919 56.4505C21.143 56.4681 21.182 56.5102 21.1962 56.562C21.2105 56.6144 21.198 56.6705 21.1631 56.7116L16.8312 61.8155C16.7989 61.8538 16.7526 61.8736 16.7058 61.8736ZM15.404 60.5863L16.6781 61.4884L20.7578 56.6817L19.0648 56.0919L15.404 60.5863Z" fill="#241726"/>
<path d="M34.9696 48.895C34.7363 48.895 34.4908 48.8748 34.2329 48.8304C32.7752 48.5803 31.79 47.9815 31.1736 47.3095C31.1661 47.3187 31.1586 47.3281 31.1508 47.337C30.6466 47.9406 29.4915 48.857 27.4188 48.2068C25.5641 47.6254 24.7168 46.607 24.3963 45.6596C24.0038 46.1353 23.5199 46.5484 22.996 46.7418C22.4021 46.9612 21.511 46.9871 20.6468 45.8628C19.7465 44.6915 19.5821 43.7214 19.6535 43.0301C19.4291 43.0609 19.198 43.0718 18.9658 43.0584C17.9685 42.9996 17.2183 42.4898 16.8536 41.6224C16.2654 40.2235 16.758 38.8739 17.4385 38.0351C16.9718 37.7435 16.4266 37.1787 16.3005 36.107C16.1408 34.75 16.8804 33.5851 17.7269 32.8443C17.3327 32.5582 17.0255 32.1426 16.8499 31.6368C16.6274 30.9964 16.6491 30.4431 16.9143 29.9918C17.3566 29.2387 18.3111 29.0631 18.3516 29.0559C18.4413 29.0385 18.5258 29.0995 18.5416 29.1887C18.5575 29.2782 18.498 29.3632 18.4088 29.3792C18.4005 29.3807 17.5604 29.5379 17.1963 30.1598C16.9832 30.5239 16.971 30.9846 17.16 31.529C17.354 32.0871 17.6822 32.4239 17.9946 32.6268C18.3918 32.3267 18.7943 32.1226 19.124 32.0367C19.7268 31.8807 19.9124 32.1582 19.9647 32.2849C20.0635 32.5239 20.0383 32.7548 19.8938 32.9357C19.673 33.2115 19.1936 33.3331 18.6707 33.2423C18.4415 33.2032 18.2243 33.1298 18.0235 33.0268C17.2179 33.7045 16.478 34.8068 16.6266 36.0685C16.7419 37.0484 17.2482 37.5423 17.6607 37.7854C17.8722 37.5695 18.0921 37.4031 18.2963 37.2985C18.7638 37.0593 19.1652 37.1182 19.371 37.4551C19.5543 37.7556 19.453 37.9721 19.3765 38.0742C19.1607 38.3624 18.6155 38.4578 18.0507 38.3057C17.9761 38.2859 17.866 38.2509 17.7365 38.1935C17.1058 38.9492 16.6169 40.2137 17.1561 41.4957C17.558 42.4512 18.3724 42.6946 18.9849 42.7309C19.2272 42.7446 19.4732 42.7276 19.711 42.6876C19.7499 42.5234 19.8005 42.382 19.8513 42.2649C20.1116 41.6674 20.6115 41.2204 21.0668 41.1773C21.2915 41.1562 21.4779 41.237 21.5922 41.4049C21.7182 41.5893 21.7196 41.8107 21.5966 42.0278C21.3815 42.4071 20.7508 42.794 19.9919 42.9684C19.9019 43.5945 20.0252 44.5159 20.9068 45.6628C21.4044 46.3103 21.9518 46.5996 22.5344 46.5214C23.2161 46.4306 23.8382 45.8684 24.2896 45.2612C24.1922 44.766 24.2285 44.3125 24.3227 43.9806C24.4782 43.4331 24.7996 43.1217 25.1221 43.2031C25.1935 43.2214 25.361 43.2939 25.3757 43.5729C25.3957 43.9596 25.1108 44.6728 24.643 45.3359C24.8752 46.2539 25.64 47.3054 27.5165 47.8934C29.4077 48.4867 30.4468 47.6679 30.8983 47.1268C30.9185 47.1024 30.9385 47.0781 30.9579 47.0531C30.4949 46.4485 30.3082 45.8139 30.3272 45.3379C30.3508 44.7429 30.6705 44.3459 31.1618 44.301C31.4318 44.277 31.6532 44.4043 31.7871 44.66C32.0536 45.1682 31.934 46.191 31.3693 47.0439C31.9366 47.6828 32.8732 48.2639 34.288 48.5067C36.4052 48.872 37.6113 47.461 38.0316 46.8385C38.1532 46.6579 38.2579 46.4748 38.346 46.2943C37.8963 45.6334 37.686 44.9649 37.8313 44.5615C37.9091 44.3457 38.0832 44.2096 38.3215 44.1782C38.5666 44.1465 38.768 44.2385 38.8911 44.4381C39.125 44.8165 39.0461 45.5264 38.7241 46.261C38.8263 46.3981 38.9408 46.5362 39.0682 46.6732C39.5972 47.2415 41.0388 48.5056 43.0018 47.9542C44.7657 47.459 45.6225 45.9445 45.855 44.6489C45.1475 44.1489 44.684 43.5632 44.5986 43.109C44.5255 42.719 44.7227 42.4268 45.126 42.3271C45.6064 42.2092 45.9918 42.5173 46.1593 43.1528C46.2543 43.5123 46.2749 43.9796 46.206 44.4879C47.09 45.069 48.3532 45.521 49.7636 45.3375C50.9847 45.1793 51.4988 44.0773 51.7149 43.1809C51.8571 42.5904 51.8994 41.9582 51.8683 41.3695C51.0239 40.7762 50.4066 40.0042 50.2918 39.4832C50.2079 39.1021 50.3832 38.9159 50.495 38.8389C50.765 38.6524 51.0535 38.6467 51.3074 38.8209C51.7854 39.149 52.1054 40.1054 52.1858 41.1898C52.6747 41.5103 53.2327 41.7635 53.7935 41.8601C54.8852 42.0471 55.7563 41.6324 56.3835 40.626C57.4457 38.922 56.9436 37.6064 56.4949 36.9223C56.1108 36.9335 55.7555 36.8818 55.4497 36.7803C54.8771 36.5901 54.521 36.234 54.4971 35.8278C54.486 35.641 54.5702 35.4984 54.7282 35.4359C55.135 35.2759 55.9421 35.7137 56.5268 36.4148C56.5686 36.4648 56.6141 36.5223 56.6615 36.587C57.5757 36.5145 58.6363 36.059 59.4883 35.0474C60.5715 33.7614 59.9599 31.9842 59.07 30.8876C58.7932 31.0454 58.545 31.0868 58.3885 31.0939C57.8808 31.1143 57.3958 30.8556 57.235 30.4714C57.1286 30.2164 57.1868 29.9598 57.3949 29.7678C57.718 29.4692 58.3075 29.6565 58.9335 30.2543C58.998 30.3162 59.0629 30.3823 59.1275 30.4524C59.4861 30.1526 59.7879 29.6468 59.9985 28.9729C60.5521 27.2018 59.3554 25.7939 58.209 25.2396C58.098 25.6085 57.8804 25.8499 57.7344 25.9779C57.2686 26.3871 56.5874 26.502 56.2157 26.2335C56.0893 26.1421 55.8211 25.8685 56.0624 25.2984C56.3224 24.6839 57.0558 24.4854 57.9466 24.7792C57.9527 24.4279 57.8424 24.0306 57.6144 23.6095C56.8602 22.2149 55.6046 21.7926 54.6516 21.8096C54.6372 21.9279 54.6108 22.0467 54.5722 22.1649C54.389 22.7262 53.9699 23.1403 53.576 23.1493C53.3302 23.1484 53.1335 23.0021 53.0307 22.7301C52.8775 22.3251 53.1029 21.927 53.6186 21.6914C53.8266 21.596 54.069 21.53 54.3322 21.4979C54.3099 21.125 54.1415 20.6551 53.5788 20.2237C51.799 18.859 50.0933 20.4662 50.0216 20.5354C49.9565 20.5979 49.8525 20.5964 49.7894 20.5309C49.7266 20.4657 49.7283 20.3618 49.7935 20.299C49.813 20.2798 51.7729 18.4251 53.7786 19.9632C54.3182 20.3767 54.6238 20.9132 54.661 21.476C55.7688 21.4581 57.1255 22.0148 57.9033 23.4529C58.2222 24.0428 58.3061 24.5245 58.2724 24.9068C59.5563 25.4906 60.9374 27.0692 60.3118 29.071C60.0479 29.9159 59.6875 30.411 59.3402 30.6996C60.2629 31.8459 60.9971 33.7654 59.7394 35.259C58.8802 36.2792 57.8154 36.7728 56.8641 36.8937C57.3283 37.6798 57.7474 39.0585 56.6621 40.7998C55.7841 42.2084 54.5872 42.3293 53.7377 42.1837C53.2005 42.0914 52.6761 41.8723 52.2043 41.5884C52.2149 42.149 52.1616 42.7273 52.0338 43.2578C51.6941 44.6667 50.9027 45.521 49.8052 45.6632C48.4083 45.8442 47.1011 45.4301 46.1444 44.8403C45.8555 46.2101 44.9291 47.7543 43.0902 48.2704C40.9536 48.8706 39.3974 47.5096 38.8274 46.8968C38.7341 46.7968 38.646 46.6942 38.5636 46.5906C38.4858 46.7362 38.399 46.8809 38.3033 47.0223C37.8994 47.622 36.8215 48.8946 34.9696 48.895ZM31.2283 44.6262C31.2157 44.6262 31.2033 44.6271 31.1919 44.6281C30.873 44.657 30.6725 44.9273 30.6557 45.351C30.6399 45.7465 30.7883 46.2654 31.1529 46.7731C31.5991 46.0476 31.7052 45.2101 31.4965 44.8121C31.4143 44.6553 31.3102 44.6262 31.2283 44.6262ZM38.416 44.5004C38.3996 44.5004 38.3825 44.5014 38.3643 44.504C38.2475 44.519 38.1765 44.5729 38.1404 44.6728C38.0521 44.9181 38.1735 45.397 38.5018 45.9332C38.7204 45.3504 38.7538 44.8403 38.6119 44.6106C38.5658 44.5354 38.5041 44.5004 38.416 44.5004ZM25.0194 43.5139C24.9271 43.5139 24.7465 43.6924 24.6393 44.0703C24.5788 44.2832 24.546 44.5526 24.5663 44.8518C24.703 44.6276 24.8129 44.4106 24.8905 44.222C25.0891 43.7396 25.053 43.5417 25.0324 43.5154C25.0283 43.5145 25.0238 43.5139 25.0194 43.5139ZM45.316 42.6315C45.281 42.6315 45.2441 42.636 45.2052 42.6456C44.9679 42.7043 44.8805 42.8284 44.9218 43.0481C44.9821 43.3689 45.339 43.8396 45.906 44.2742C45.9416 43.8806 45.9174 43.5214 45.8419 43.236C45.7799 43.0001 45.6318 42.6315 45.316 42.6315ZM21.1361 41.5023C21.1241 41.5023 21.1115 41.5029 21.098 41.5042C20.8096 41.531 20.3922 41.8464 20.1529 42.3957C20.1257 42.4582 20.0988 42.5285 20.0743 42.6065C20.6636 42.4432 21.1507 42.1489 21.3113 41.8656C21.3919 41.7232 21.3557 41.6398 21.3215 41.5895C21.306 41.5671 21.2618 41.5023 21.1361 41.5023ZM50.9202 39.0224C50.8441 39.0224 50.7655 39.0514 50.6818 39.109C50.6527 39.1289 50.564 39.1901 50.6129 39.4121C50.705 39.831 51.1786 40.4307 51.8319 40.9368C51.7272 40.0478 51.4554 39.3204 51.1219 39.0914C51.0549 39.0456 50.9885 39.0224 50.9202 39.0224ZM17.9765 37.9368C18.04 37.9606 18.0946 37.9773 18.1363 37.9885C18.6021 38.115 18.9993 38.0306 19.1138 37.8776C19.1316 37.8539 19.1857 37.7817 19.0908 37.6265C18.9429 37.384 18.6233 37.5001 18.446 37.5909C18.2961 37.6674 18.1354 37.7851 17.9765 37.9368ZM54.9218 35.7296C54.8925 35.7296 54.8682 35.7335 54.8496 35.7409C54.8366 35.746 54.8219 35.7518 54.8254 35.8082C54.8408 36.0715 55.1199 36.3243 55.5536 36.4682C55.7619 36.5375 55.9966 36.5804 56.2483 36.5931C55.7305 35.9865 55.1616 35.7296 54.9218 35.7296ZM18.32 32.7982C18.4946 32.871 18.6419 32.9045 18.7266 32.9189C19.1197 32.9865 19.4947 32.9092 19.6374 32.7306C19.7066 32.644 19.7146 32.5395 19.6615 32.4109C19.6011 32.2649 19.2985 32.331 19.2066 32.3548C18.9496 32.4217 18.6374 32.5746 18.32 32.7982ZM57.7775 29.955C57.7118 29.955 57.6575 29.9723 57.6183 30.0085C57.513 30.1057 57.4861 30.2185 57.5386 30.3443C57.6302 30.5634 57.9613 30.7904 58.3738 30.7654C58.5393 30.7578 58.6991 30.7142 58.8513 30.6365C58.8036 30.5862 58.7554 30.5378 58.7071 30.4915C58.3532 30.1532 57.9997 29.955 57.7775 29.955ZM57.1794 24.976C56.8238 24.976 56.505 25.096 56.3654 25.426C56.29 25.6043 56.2363 25.8426 56.4085 25.9671C56.6269 26.1249 57.136 26.0665 57.5182 25.731C57.7121 25.5607 57.8405 25.351 57.903 25.1107C57.6738 25.0299 57.4182 24.976 57.1794 24.976ZM54.3155 21.8356C54.0991 21.8657 53.9082 21.9199 53.7558 21.9895C53.5885 22.0662 53.2125 22.2801 53.3385 22.6135C53.4179 22.8235 53.5332 22.8249 53.569 22.8204C53.7841 22.8156 54.1099 22.5243 54.2607 22.0626C54.28 22.0029 54.3008 21.926 54.3155 21.8356Z" fill="#241726"/>
<path d="M34.6857 71.8096L40.2032 71.3818L40.0207 72.9589L35.3813 73.3142L34.6857 71.8096Z" fill="white"/>
<path d="M40.3216 71.2682C40.2876 71.2329 40.2388 71.2137 40.1905 71.2185L34.6732 71.6463C34.6196 71.6502 34.5713 71.6804 34.5443 71.7268C34.5171 71.7734 34.5143 71.8301 34.5368 71.8788L35.2324 73.3834C35.2593 73.4418 35.3177 73.4787 35.3815 73.4787C35.3857 73.4787 35.3897 73.4787 35.394 73.4784L36.4266 73.3991C36.653 75.1218 30.4065 75.4079 34.3662 76.2132C37.9651 76.9452 38.0726 74.2798 38.0376 73.5587L38.1994 75.6154L39.5007 75.2285L39.1493 73.1904L40.0333 73.1226C40.1118 73.1168 40.1749 73.0559 40.184 72.9779L40.3665 71.4009C40.3719 71.3523 40.3555 71.3034 40.3216 71.2682ZM39.8732 72.8057L35.4826 73.1418L34.934 71.9554L40.0172 71.5612L39.8732 72.8057Z" fill="#241726"/>
<path d="M42.1966 70.9238L47.7604 71.1488L47.3432 72.7771L42.1966 72.959V70.9238Z" fill="white"/>
<path d="M46.1573 72.9833L47.349 72.9412C47.4218 72.9387 47.4841 72.8882 47.5022 72.8177L47.9196 71.1894C47.9319 71.1413 47.9218 71.0904 47.8924 71.0505C47.8627 71.0107 47.8168 70.9866 47.7672 70.9844L42.2033 70.7593C42.1627 70.7605 42.1154 70.774 42.083 70.8051C42.0508 70.8358 42.0326 70.8788 42.0326 70.9233V72.9587C42.0326 73.0032 42.0507 73.0458 42.0827 73.0766C42.1133 73.1065 42.1543 73.1229 42.1968 73.1229C42.1987 73.1229 42.2007 73.1229 42.2026 73.1229L43.4001 73.0805L43.064 75.228L44.3652 75.6149L44.5271 73.5582C44.4922 74.2793 44.5996 76.9447 48.1985 76.2127C52.2224 75.3946 45.7863 75.0044 46.1573 72.9833ZM42.3607 71.0944L47.551 71.3046L47.2146 72.6172L42.3607 72.7888V71.0944Z" fill="#241726"/>
</g>
<defs>
<clipPath id="clip0_3_712">
<rect width="80" height="80" fill="white" transform="translate(0.666687)"/>
</clipPath>
</defs>
</svg>
